<svg preserveAspectRatio="xMidYMid meet" data-bbox="1.057 1.093 941.78 488.907" viewBox="0 0 942 489" xmlns="http://www.w3.org/2000/svg" data-type="ugc" role="presentation" aria-hidden="true" aria-label="">
    <g>
        <path d="M773 490H1.057V1.093h941.78V490c-53.93 0-107.922 0-162.335-.43-.42-2.86-.42-5.29-.42-7.917 8.25 4.58 13.85 4.201 18.213-1 4.241-5.056 4.293-14.363.108-19.522-4.128-5.09-9.622-5.497-17.957-1.332-1.029-4.85-4.465-1.899-7.446-2.698V490M195.592 357.32c.435-.007.87-.013 1.948.353 5.184 1.74 10.336 1.845 16.16-.146.44-.172.88-.344 1.929-.329 1.14-.723 2.28-1.446 3.382-2.205 0 0 .014.05.75.088 2.074-2.043 4.149-4.085 6.852-6.211.444-.37.887-.738 1.937-1.265a57.588 57.588 0 0 1 2.01-4.202c.02-.497.041-.995.681-1.854 1.558-7.25 7.07-6.64 12.569-6.56 9.061.13 18.127-.058 27.835.12.451-.035.903-.07 2.255.06h6.135c0-3.55-.002-6.508 0-9.465.026-34.871.051-69.742 1-104.644 23.304-.008 46.61-.016 70.043.697-.063.73-.126 1.46-.892 2.435-1.06 4.941-2.121 9.882-3.967 14.861-1.348 3.103-2.697 6.205-4.028 10.053-.746 1.556-1.648 3.059-2.208 4.68-1.422 4.115-2.596 8.318-4.042 12.426-3.175 9.017-6.457 17.997-9.996 27.575a174.821 174.821 0 0 1-2.08 6.067c-.656 1.41-1.313 2.82-2.666 4.427-1.346 4.579-2.692 9.158-4.115 14.493-1.098 2.634-2.397 5.204-3.254 7.915-2.013 6.368-3.815 12.804-6.421 19.432-.498 1.598-.995 3.197-2.106 5.192-1.126 2.894-2.252 5.789-4.104 8.81-.35 1.322-.7 2.645-1.179 4.588-.004.423-.009.846-.292 1.84.002.421.004.842-.704 1.353l-.395.618c.285.127.57.364.855.365 12.817.026 25.633.032 39.374.18a1265.1 1265.1 0 0 1 11.294-.184c6.658.04 13.317.011 19.973.148 3.211.066 4.472-1.126 5.091-4.471.865-4.674 2.712-9.179 4.275-13.708 2.086-6.044 4.505-11.98 6.42-18.075 3.618-11.517 6.758-23.187 10.508-34.659 3.664-11.21 7.84-22.251 12.059-34.116h109.079c9.043 0 9.234.343 11.502 8.849 2.211 8.29 4.636 16.538 7.376 24.667 3.934 11.671 8.447 23.148 12.328 34.835 4.028 12.131 7.597 24.414 11.335 36.529 7.42 0 14.063 0 21.635.154 2.796-.043 5.591-.086 9.307-.087 13.989.03 27.978.024 41.966.128 2.24.017 3.608-.32 2.82-3.73-.599-1.699-1.094-3.445-1.833-5.082-.5-1.105-1.34-2.057-2.665-3.488-.456-1.939-.912-3.877-1.28-6.539-.868-2.05-1.735-4.099-2.74-6.987-.266-1.284-.391-2.617-.82-3.845-2.831-8.114-5.727-16.205-8.6-25.073-.61-1.772-1.133-3.582-1.864-5.304-.45-1.058-1.218-1.98-2.014-3.717-.727-2.084-1.453-4.167-2.124-6.931-.657-.442-1.313-.884-1.892-1.371 0 0-.05.074.025-.737a163.496 163.496 0 0 1-1.02-6.07c-2.697-7.151-5.435-14.287-8.08-21.457-3.034-8.23-5.985-16.492-8.881-25.528-2.39-7.02-4.78-14.038-7.095-21.83-1.974-3.814-3.947-7.627-6.033-12.248-1.204-4.702-2.118-9.503-3.673-14.086-3.228-9.509-6.823-18.892-10.215-28.345-2.224-6.195-4.276-12.453-6.551-18.629-2.828-7.674-5.807-15.293-8.631-23.695-.335-1.751-.67-3.503-.984-5.997-1.285-2.129-2.57-4.257-3.858-7.125-.609-1.128-1.218-2.256-1.883-4.152-.673-1.42-1.347-2.841-1.995-5.052-.42-2.017-.84-4.035-1.189-6.83-2.667-7.085-5.335-14.17-7.878-22.049-1.397-4.015-2.706-8.064-4.23-12.03-.697-1.812-1.818-3.461-2.794-5.935-.617-1.157-1.235-2.315-1.818-4.258-1.025-2.24-2.293-4.405-3.029-6.737-2.22-7.037-4.232-14.14-6.242-21.885-.944-1.07-1.888-2.138-3.716-3.278-1.768.009-3.537.018-6.22-.02-3.998.025-7.996.05-12.893-.035-2.724.06-5.448.121-8.894.044-.73.048-1.46.096-3.045 0-1.73.036-3.459.072-6.004-.036-1.381.013-2.762.027-5.01-.107-2.045.041-4.091.082-6.821.065-.452.053-.903.106-2.012.042-.44.048-.88.096-2.108.005-1.061.06-2.123.119-3.944.03-.77.052-1.539.103-3.231.007-7.067-.018-14.139.124-21.197-.125-3.235-.114-5.05.685-5.644 4.384-.373 1.94-.745 3.878-1.117 6.222 0 0-.082.395-.812.605-1.107 2.607-2.333 5.172-3.29 7.833-1.075 2.986-1.906 6.06-2.98 9.865-1.201 2.91-2.547 5.77-3.577 8.74-2.584 7.448-5.025 14.945-8.234 22.635-2.363 5.939-4.726 11.877-7.184 18.584-.295 1.742-.59 3.484-1.069 5.964-2.71 7.3-5.418 14.598-8.61 22.426-.054.94-.107 1.88-.304 3.286 0 0-.128.473-.855.65-2.368 5.962-4.737 11.925-7.167 18.648-.99 3.073-2.262 6.09-2.896 9.234-.679 3.366-1.995 5.072-5.762 5.055-29.742-.137-59.485-.119-89.353-1.066-.01-18.288.122-36.578-.07-54.864-.217-20.702-.724-41.4-1.083-62.955-.938-.429-1.875-1.231-2.814-1.232-19.156-.008-38.312.075-57.69-.507-.726-.262-1.453-.753-2.18-.754-22.13-.036-44.26-.038-66.39.03-.95.004-1.9.734-3.741.39-.69-.329-1.381-.657-2.107-1.817.465-7.108-4.821-10.825-9.259-14.68-3.18-2.763-7.093-5.42-11.095-6.365-12.466-2.947-22.856.977-30.81 11.207-5.433 6.987-9.015 15.055-5.95 23.395 3.96 10.78 13.956 22.8 29.424 22.687 13.83-.102 26.162-9.866 28.342-22.88 2.178-.512 4.352-1.453 6.534-1.47 22.789-.169 45.578-.19 68.62.379 1.55.267 3.1.758 4.653.765 13.655.063 27.31.029 40.966.053 1.755.003 3.509.173 5.772.292 0 18.424 0 36.38-.112 55 .052.444.103.887.046 2.263v26.03c-2.674 0-4.484.035-6.292-.004-19.711-.426-39.42-.932-59.133-1.267-9.811-.167-19.63.06-29.44-.125-1.458-.027-3.717-.985-4.205-2.117-3.723-8.636-9.206-15.612-18.283-18.684-4.24-1.434-9.194-2.568-13.44-1.774-7.73 1.445-14.296 4.838-19.908 11.581-8.899 10.693-8.51 28.21 2.772 37.103.904.628 1.81 1.256 2.97 2.503 1.3.615 2.6 1.23 3.909 1.823 0 0-.024.017.22.682 7.293 6.043 15.998 5.397 23.401 2.183 9.675-4.2 17.56-11.348 20.104-22.885 15.115-.076 30.23-.151 45.746.4 1.704.328 3.406.928 5.111.938 13.646.078 27.293.034 40.94.06 1.743.003 3.485.197 5.172.299v93.947c-20.694 0-40.985.052-61.274-.128-1.21-.01-2.733-1.66-3.541-2.915-2.254-3.496-3.69-7.638-6.379-10.71-7.404-8.457-16.537-11.77-27.972-9.035-8.545 2.044-14.63 6.512-19.09 14.508-.07.573-.139 1.147-.848 2.03-.885 1.51-1.909 2.958-2.63 4.544-2.411 5.31-.505 15.436 3.557 19.887.145.4.29.8.501 1.903 1.334 1.412 2.669 2.824 4.1 4.898.642.46 1.284.922 2.064 2.065 8.339 7.055 17.973 9.198 28.136 5.693 4.097-1.413 7.3-5.419 11.332-8.33 0 0 .345-.254 1.047-.241 2.015-3.33 3.936-6.724 6.083-9.967 1.215-1.836 2.802-3.426 5.132-4.882 20.012.071 40.024.143 60.01 1.133.088 9.976.177 19.952.11 30.583.033.447.065.893-.043 2.207.047 2.046.094 4.091.037 6.803.055.443.11.886.05 2.26v30.705c-12.109 0-23.58.034-35.05-.062-.978-.009-2.67-.737-2.812-1.393-1.576-7.33-6.831-12.118-11.91-16.783-5.273-4.845-12.071-6.654-19.103-5.595-6.489.978-12.01 4.04-16.924 8.837-7.71 7.526-12.063 16.207-9.544 26.695 1.106 4.602 5.433 8.43 8.39 13.27.643.46 1.286.921 2.072 2.066 1.93 1.117 3.86 2.234 5.974 3.894l3.426 1.758M721.5 371.637h42.347v-17.943H722.39V235.006h41.375v-17.217H656.237v17.58h41.376v118.682h-41.337v17.586H721.5M680.842 48.5V20.383H657.12v153.493h107.586v-17.521h-83.864V48.5M816.85 170.997c0-4.319-.175-8.647.052-12.953.189-3.566-.623-6.266-4.009-8.048-3.866-2.034-7.78-4.083-11.296-6.644-3.054-2.224-5.657-2.48-8.578-.181-.843.662-1.655 1.456-2.619 1.86-12.004 5.031-12.943 6.42-12.944 19.547 0 .166.025.337-.003.498-1.024 5.87.89 10.231 6.349 13.01 2.948 1.5 5.709 3.366 8.57 5.04 3.222 1.883 6.405 1.912 9.662-.048 2.974-1.79 6.248-3.137 9.026-5.176 2.213-1.624 3.88-3.995 5.79-6.905m-39.386 57.494c-.002 2.332-.304 4.716.086 6.981.331 1.931.94 4.43 2.327 5.452 4.417 3.254 9.09 6.273 14.012 8.67 1.916.935 4.987.556 7.116-.281 2.527-.994 4.382-3.787 6.918-4.644 8.03-2.713 10.216-8.242 8.969-16.007-.313-1.949-.281-4.024-.004-5.983.785-5.543-3.27-7.509-6.97-9.706-1.369-.813-3.238-.93-4.397-1.926-5.63-4.835-11.04-5.57-16.463.229-.322.344-.834.593-1.301.708-8.198 2.032-11.544 7.259-10.293 16.507M653.914 478.03c-.49.097-.976.246-1.47.284-5.62.442-9.79-2.036-11.418-6.764-1.72-5-.147-10.668 3.74-13.475 4.188-3.023 8.017-2.35 13.159 1.076 2.086 1.39 5.247 1.167 8.605 1.808-3.991-9.576-13.167-13.391-21.987-10.182-8.957 3.26-13.483 12.997-10.43 22.438 2.79 8.623 12.366 13.557 21.295 10.971 8.784-2.543 13.537-10.134 11.505-18.557h-18.035l.386 5.337h10.678l.892 1.325c-2.032 1.86-4.064 3.72-6.92 5.739m-139.622-14.857c-1.9-2.925-4.122-5.696-5.622-8.814-2.046-4.252-5.147-5.102-9.55-3.927v33.761h6.995v-22.486c4.648 6.982 8.76 12.637 12.284 18.637 2.34 3.983 5.15 5.187 9.436 3.69v-33.785h-6.769v22.998c-2.688-4.032-4.51-6.764-6.774-10.074m-296.246 17.084c.804 1.449 1.568 4.12 2.418 4.148 5.457.177 11 .231 16.386-.556 6.3-.921 9.29-7.664 6.104-12.939-.987-1.633-2.626-2.872-4.035-4.365 3.528-2.388 5.31-5.505 4.079-9.784-1.239-4.303-4.66-6.058-8.643-6.318-5.244-.343-10.527-.084-15.726-.084-.215.454-.468.739-.47 1.026-.052 9.307-.08 18.614-.113 28.872m381.092-.91c1.307 1.02 2.526 2.183 3.935 3.034 8.033 4.852 18.92 2.402 23.813-5.29 5.275-8.29 2.994-19.536-5.014-24.717-6.729-4.354-16.825-3.163-22.52 2.658-6.034 6.167-6.282 15.632-.214 24.315m-54.416-28.543c-7.742 3.5-11.9 9.475-11.426 16.978.468 7.409 3.959 12.965 10.987 15.857 6.768 2.786 14.663.94 19.679-4.399 4.993-5.314 5.905-14.076 2.169-20.845-3.908-7.08-11.163-9.84-21.409-7.59m-464.77-.848c-7.612 1.539-12.478 6.008-14.045 13.654-1.533 7.482 1.264 14.52 7.219 18.27 6.505 4.099 13.193 4.097 19.74.075 6.467-3.972 9.28-12.32 6.985-20.175-2.304-7.886-9.087-12.121-19.9-11.824m390.402 3.942-.382-3.556h-6.315v33.905h6.82v-14.02h14.713v13.985h6.467v-33.94h-6.645v13.63h-14.658v-10.004m437.156 21.647c3.788 9.687 10.724 11.868 19.883 7.71l7.499 1.669V448.33h-6.899v11.56c-10.163-5.54-19.06-2.256-20.809 7.442-.432 2.396.008 4.949.326 8.214M13.975 465.373l-6.7 18.77c4.353 1.006 7.647 1.136 8.826-3.902.22-.942 1.996-2.015 3.153-2.144a38.728 38.728 0 0 1 8.447-.003c1.164.127 2.967 1.163 3.182 2.088 1.158 4.965 4.418 5.018 8.87 3.975-3.676-10.325-7.454-20.521-10.887-30.832-1.05-3.153-2.994-3.25-5.645-3.365-2.755-.12-4.218.69-5.026 3.42-1.128 3.809-2.662 7.497-4.22 11.993m284.536-6.467-8.995 25.262c6.586.625 6.586.625 9.777-6.174 3.506 0 7.162-.13 10.798.082 1.037.06 2.753.96 2.905 1.723 1.038 5.214 4.377 5.47 8.941 4.295-3.684-10.328-7.498-20.554-10.927-30.908-1.07-3.229-3.072-3.062-5.635-3.226-2.847-.183-4.346.744-4.96 3.508-.357 1.611-1.053 3.147-1.904 5.438m-113.194 12.798c-1.45 4.127-2.9 8.255-4.36 12.417 4.614 1.213 7.75.841 8.75-4.102.167-.828 1.78-1.84 2.798-1.929 2.965-.259 5.99-.3 8.946.01 1.155.12 2.974 1.252 3.15 2.177 1.005 5.314 4.427 4.693 8.747 3.842-3.93-10.985-7.603-21.748-11.802-32.3-.476-1.196-3.917-1.621-5.98-1.615-1.163.003-2.922 1.382-3.38 2.548-2.362 6.009-4.39 12.15-6.869 18.952m246.187-1.063c-.095-1.814-.496-3.675-.232-5.435 1.216-8.095 10.446-12.326 15.96-6.992 3.17 3.065 6.124 2.79 9.773 2.459-3.09-8.287-10.556-12.277-19.245-10.598-8.662 1.674-14.297 9.335-13.724 18.658.534 8.691 7.062 15.202 16.118 16.075 7.757.748 14.771-3.833 16.735-11.653-2.946.673-6.127.504-8 1.987-7.1 5.621-12.892 4.556-17.385-4.5m312.999.257c1.215 1.555 2.77 2.977 3.46 4.737.239.612-1.587 2.86-2.606 2.96-1.962.19-5.185.03-5.83-1.128-2.255-4.056-5.342-2.675-8.466-2.578.845 8.415 10.673 12.552 18.824 8.383 3.87-1.979 6.308-5.218 5.339-9.159-.726-2.951-3.328-5.791-5.787-7.854-1.907-1.599-5.023-1.663-7.34-2.897-1.587-.845-3.086-2.347-3.89-3.928-.327-.645 1.163-3.156 2.041-3.28 1.94-.271 5.02-.287 5.853.873 2.607 3.632 5.628 2.173 8.793 2.143-1.975-8.793-11.253-12.214-19.406-7.541-6.39 3.662-6.48 12.171-.013 15.73 2.582 1.422 5.528 2.179 9.028 3.54m-478.674 6.127c-2.65 2.856-6.15 3.229-8.139.252-2.58-3.86-5.396-2.542-8.549-2.381 1.379 8.585 11.137 12.62 19.084 8.374 3.578-1.912 5.569-4.796 5.612-8.757.044-4.14-2.504-6.781-6.056-8.387-2.414-1.091-5.137-1.547-7.454-2.787-1.599-.856-3.08-2.392-3.908-3.99-.31-.598 1.284-3.115 2.178-3.212 1.95-.212 4.073.363 6.003.993 2.628.86 5.142 2.07 8.417 3.425-1.109-9.289-9.79-13.182-17.893-9.668-3.901 1.692-6.135 4.485-6.11 8.816.024 4.146 2.224 6.87 5.96 8.364 2.463.985 5.31 1.327 7.421 2.78 1.699 1.167 2.55 3.567 3.434 6.178m140.576-19.566c1.338-.543 2.648-1.44 4.022-1.555 2.902-.241 5.837-.073 9.08-.073l-.26-5.44h-19.575v33.885h19.523v-5.569H406.57v-8.772h11.079v-6h-11.272c0-2.145 0-3.805.028-6.476m-64.12 15.046v-17.4c2.684-.174 4.858-.135 6.947-.539.834-.161 1.478-1.3 2.209-1.994-.71-.702-1.409-2.002-2.13-2.015-8.033-.145-16.07-.091-24.566-.091 1.102 6.818 6.356 3.046 9.086 4.951v24.635c-2.262.17-4.283.12-6.196.55-.964.217-1.732 1.305-2.588 1.999.765.614 1.517 1.743 2.298 1.764 7.31.193 14.627.256 21.938.163.729-.01 1.441-1.3 2.16-1.997-.746-.656-1.409-1.715-2.255-1.89-2.22-.462-4.52-.538-6.903-.78v-7.356m346.129 12.277c2.158-.03 4.352.155 6.46-.185.979-.157 1.794-1.333 2.682-2.048-.907-.717-1.727-1.847-2.742-2.065-2.038-.438-4.182-.379-6.201-.519V454.83c2.04 0 3.888.26 5.613-.09 1.196-.241 2.222-1.321 3.325-2.027-.996-.817-1.973-2.313-2.991-2.342-6.802-.197-13.615-.163-20.417.029-.92.026-1.805 1.352-2.706 2.076.864.76 1.63 1.973 2.61 2.183 2.052.44 4.217.35 6.385.48v24.877c-1.966.1-3.802-.034-5.517.358-1.235.28-2.31 1.262-3.455 1.932 1.175.817 2.305 2.25 3.534 2.34 4.132.304 8.298.13 13.42.138m33.582-28.959c5.41.142 2.726-3.306 2.845-5.553h-19.342v33.97h19.456v-5.593h-12.588v-8.846h11.625l-.48-5.826h-11.08v-8.152h9.564m-616.18-3.127v31.546h7.03v-13.979l10.96-.49-.378-5.56H113.2v-8.478h13.456v-5.692c-6.343 0-12.325-.067-18.303.075-.846.02-1.669 1.054-2.537 2.578m718.658 25.44 7.551-20.552c-5.79-1.718-8.067.59-9.204 5.51-1.05 4.539-2.926 8.886-4.914 14.715-1.998-6.137-3.838-10.71-4.937-15.453-1.24-5.349-4.192-6.29-9.137-4.567 3.023 8.168 5.905 16.234 9.07 24.187.454 1.142 2.166 2.162 3.488 2.512 4.709 1.244 7.084-1.135 8.083-6.352m-446.247-20.503v26.636h7.033v-28.403h8.858v-5.578h-24.75v4.97c3.084.496 5.924.953 8.859 2.375m512.354 18.2c1.04 7.657 4.879 10.037 13.184 7.92-.074-1.524-.15-3.107-.24-5.007-5.34.815-6.315-1.974-5.99-6.176.238-3.085.046-6.203.046-9.325l5.89-.582v-5.304l-5.704-.457-.425-6.15h-6.368c-1.155 2.513 1.118 6.353-3.326 6.856.248 1.752.297 3.565.807 5.237.396 1.298 1.841 2.368 1.984 3.633.314 2.795.101 5.65.142 9.356m-751.646-19.063v27.515h7.228v-28.24c3.184-.167 5.932-.31 9.014-.473l-.245-5.262h-24.694v5.283c2.853.158 5.471.303 8.697 1.177m437.14 27.816h15.624V478.9h-11.243v-28.621h-6.827c0 10.724-.038 21.198.068 31.672.009.876.98 1.742 2.378 2.638m-531.75-14.096v13.753h18.65l-.453-5.53H51.394v-28.382h-7.068v20.159m799.886 13.827h5.663v-5.746c-5.597 1.265-6.07-1.95-5.819-6.03.191-3.105.038-6.232.038-9.336l6.091-.572-.316-5.348-5.585-.342-.415-6.174h-6.49l.934.946c-1.325 1.97-3.01 3.8-3.849 5.96-.565 1.455-.103 4.833.186 4.866 3.61.417 2.303 3.07 2.4 4.916.15 2.821-.026 5.658.058 8.485.127 4.23 1.706 7.428 7.104 8.375m-684.096-6.933v7.256c5.09 0 9.55-.185 13.985.053 4.215.226 5.407-1.387 3.855-5.802h-11.074v-28.559h-6.766v27.052m713.799-13.88v-13.275h-6.766v33.958h18.022l-.399-5.396h-10.857v-15.286z" fill="#FEFEFE"/>
        <path d="M773.438 490C773 479.22 773 468.44 773 457.101c2.981.8 6.417-2.152 7.446 2.698 8.335-4.165 13.83-3.757 17.957 1.332 4.185 5.159 4.133 14.466-.108 19.522-4.362 5.201-9.964 5.58-18.214 1 0 2.628 0 5.057-.04 7.916-2.083.431-4.124.431-6.604.431m17.677-12.353c.908-1.158 2.62-2.353 2.57-3.469-.137-3.115-.198-6.786-1.872-9.086-1.096-1.506-5.749-2.204-7.36-1.117-2.162 1.458-3.972 4.952-4.07 7.64-.2 5.535 4.204 7.993 10.732 6.032z" fill="#273E18"/>
        <path d="M321.896 304.085c.656-1.41 1.313-2.82 2.576-4.543 5.421-.33 10.237-.294 15.051-.38 4.471-.078 8.707-.268 12.264 3.652.93 1.026 4.913.277 6.82-.824 2.582-1.49 5.462-3.541 3.709-7.657-1.838-4.314-7.12-5.772-12.016-3.588a28.167 28.167 0 0 1-9.12 2.327c-4.951.385-9.954.121-14.935.132 3.239-8.995 6.521-17.975 9.696-26.992 1.446-4.108 2.62-8.31 4.042-12.427.56-1.62 1.462-3.123 2.512-5.027 1.338.263 2.371.874 3.675 1.766 2.478.059 4.686-.164 7.284-.424 1.341-3.49 3.03-7.007-.385-10.116.073-.029.046-.182.04-.637-.042-5.247.05-10.047-.21-14.827-.064-1.193-1.27-2.325-1.95-3.484-23.305.008-46.61.016-70.698-.224-.936-3.095-1.088-5.942-.773-8.775 16.122.013 31.777.013 47.803.126 1.708.709 3.15 1.962 4.359 1.769 2.897-.464 6.224-.966 8.317-2.719 1.266-1.06 1.365-4.824.554-6.778-1.66-4-9.08-4.028-13.992-.454-16.151.003-31.834.013-47.537-.416-.019-2.488-.018-4.537.455-6.582 20.181.004 39.89.049 59.597-.074 1.678-.01 3.35-1.13 5.387-1.765 1.088-.063 1.814-.095 2.895-.062 2.135 1.348 3.75 3.075 5.733 3.808 2.913 1.078 5.671-.08 6.938-2.931.97-2.184 2.236-5.331 1.362-6.993-1.46-2.776-3.964-5.718-8.478-4.831-.877.547-1.413 1.137-1.95 1.762 0 .034-.065.012-.437 0-1.338.76-2.306 1.532-3.332 2.214-.058-.092.028.107-.452.04-22.892-.07-45.305-.076-67.727-.528-.004-2.533.001-4.618.477-6.68 16.133.05 31.797.074 47.631.38 1.427 1.008 2.683 1.734 4.201 2.53.433.01.604-.05 1.152-.069 1.802-.208 3.229-.457 4.608-.706-.047 0 .038.04.4-.012 5.265-3.47 5.896-6.056 2.56-9.063 0-.004-.007-.006-.02-.346-.654-.816-1.296-1.292-2.008-2.112-1.032-.719-1.996-1.096-3.356-1.57-2.08.634-3.765 1.366-5.504 2.089-.055-.01-.048.101-.358.144-.76.64-1.21 1.235-1.698 1.82-.036-.01-.05.064-.518.082-16.131.087-31.793.156-47.492-.25.332-3.966.7-7.458 1.068-10.95 29.743.03 59.486.011 89.228.148 3.767.017 5.083-1.69 5.762-5.055.634-3.144 1.905-6.16 3.343-9.6.784 1.139 1.403 2.642 1.413 4.15.083 12.068.166 24.14-.036 36.205-.046 2.753-1.202 5.487-2.215 8.299-3.676 4.619-3.342 8.217.729 11.233 3.119 2.455 5.999 2.645 8.971-.325.78-.675 1.229-1.325 1.683-1.97.006.005-.005-.006.375-.07 2.214-2.565 2.82-4.978-.23-7.423-.71-.724-1.326-1.156-2.228-1.886-.516-2.43-.94-4.563-.947-6.697-.064-19.992-.055-39.984-.068-59.975 0 0 .128-.473.44-.971.367-1.438.42-2.377.474-3.317 2.71-7.299 5.419-14.598 8.513-21.97.489 1.246.685 2.565.685 3.884.014 26.15.005 52.3-.286 78.644-.674.924-1.047 1.663-1.45 2.386-2.36 4.236-1.538 8.943 2.307 11.304 4.022 2.469 7.133 1.008 9.482-2.802.756-1.226 1.762-2.297 2.94-3.805-5.565-5.432-5.192-12.337-5.164-19.322.126-31.658.06-63.317.064-94.976 2.499-7.478 4.94-14.975 7.524-22.424 1.03-2.97 2.376-5.83 3.98-8.867.522 14.513.73 29.156.634 43.796-.01 1.675-1.566 3.451-2.676 4.984-2.212 3.053-1.477 6.138.84 8.17 2.608 2.289 6.037 4.577 9.536 1.047 2.46-2.481 4.974-5.123 2.043-8.904-2.731-3.523-3.665-7.394-3.627-11.933.157-18.312-.068-36.626-.153-54.94 0 0 .082-.395.415-.755.716-2.267 1.1-4.174 1.483-6.08-.105-3.481 1.71-4.28 4.945-4.166 7.058.25 14.13.107 21.657.591-.19 6.09-1.178 11.7-1.406 17.34-.323 7.949-.304 15.93.051 23.876.108 2.413-2.43 7.054 2.496 7.002 4.276-.045 2.248-4.388 2.282-6.744.201-13.93.104-27.865.108-41.798 1.061-.06 2.123-.12 3.575.35.39 26.517.355 52.506.47 78.494.007 1.656 1.18 3.306 1.856 5.345-.634 2.154-1.395 3.895-1.973 5.695a1456.165 1456.165 0 0 0-5.202 16.616c-2.929 9.516-5.635 19.105-8.806 28.539-2.633 7.836-6.032 15.414-8.668 23.248-2.982 8.862-5.489 17.882-8.205 26.833-1.142 3.763.06 5.238 4.424 5.24 22.137.017 44.274.008 66.41.008 10.205 0 10.067.043 7.1-9.55-5.108-16.524-9.994-33.117-15.039-49.66-2.489-8.162-5.077-16.295-7.707-24.412-1.766-5.45-3.864-10.798-5.497-16.286-2.815-9.462-5.384-18.997-7.997-28.976.124-20.858.187-41.242.25-61.627 1.382-.014 2.763-.028 4.56.489.421 14.814.44 29.097.415 43.38-.005 2.74-.369 5.159 3.86 5.222 4.48.067 4.258-2.498 4.132-5.438-.008-.166.011-.333-.003-.498-.85-9.943 1.522-19.984-1.736-29.938-1.296-3.96-.22-8.696-.225-13.078.73-.048 1.46-.096 2.65.304 3.582 1.918 6.67 3.028 9.333-.383 3.998-.024 7.996-.05 12.526.407.561 23.757.617 47.033.56 70.309-.003 1.497-.518 3.257-1.403 4.44-2.836 3.791-3.284 7.501-.482 11.855 3.075 2.452 6.077 3.593 8.973-.348.742-.399 1.291-.581 2.174-.797.737-.714 1.14-1.395 1.593-2.029.05.048-.057-.04.322-.083 2.365-2.295 2.902-4.311-.894-5.737-1.637-2.551-3.998-5.035-4.026-7.546-.244-22.145-.074-44.296.288-66.48.948-.056 1.582-.077 2.215-.098 2.094 7.077 4.107 14.179 6.326 21.216.736 2.332 2.004 4.496 2.937 7.611-.09 45.324-.088 89.774-.385 134.422-1.035 1.844-2.048 3.425-2.453 5.15-.928 3.961.323 7.438 4.074 9.07 3.215 1.4 6.416 1.022 8.275-2.873.558-1.17 2.034-1.9 3.179-2.76.09.074.265.226.244.587.594 1.425 1.21 2.49 1.844 3.915.076.843.134 1.323.196 2.192.008.721-.126 1.164.038 1.368 1.91 2.372 3.43 5.49 5.91 6.865 3.527 1.954 6.204-1.474 7.16-4.05.813-2.188-.609-5.24-1.158-7.885-.197-.949-.734-1.827-1.073-3.213.063-21.705.068-42.934.133-64.163.006-1.771.422-3.54.647-5.311 2.914 7.642 5.893 15.26 8.72 22.935 2.276 6.176 4.328 12.434 6.552 18.629 3.392 9.453 6.987 18.836 10.215 28.345 1.555 4.583 2.469 9.384 3.624 14.955-.04 8.022.115 15.18-.108 22.326-.068 2.166-1.427 4.263-1.754 6.457-.438 2.945-1.304 6.286-.323 8.811.593 1.527 4.327 2.492 6.667 2.527 3.544.052 5.562-2.412 6.272-6.05.999-.05 1.665-.063 2.332-.075 2.987 8.249 5.938 16.51 8.973 24.741 2.644 7.17 5.382 14.306 7.64 21.938-7.735.492-15.037.659-22.326.425-2.355-.076-5.115-.62-6.92-1.975-3.69-2.769-7.21-1.606-8.926 1.197-1.38 2.254-1.437 6.67-.075 8.902 1.649 2.703 5.22 4.331 8.857 1.263 3.057-2.577 6.663-3.597 10.886-3.37 6.609.357 13.256.008 19.888-.042 0 0 .05-.074-.008.285.593.804 1.244 1.249 1.895 1.693.726 2.083 1.452 4.166 2.209 6.981-.111 1.668-.251 2.604-.481 4.133-2.306-1.744-4.278-3.072-6.06-4.62-3.433-2.98-6.196-1.197-8.464 1.376-3.632 4.12-3.816 8.213.345 10.895 2.262 1.458 7.984 1.683 8.918.294 2.762-4.107 6.091-3.118 9.587-3.018 2.876 8.098 5.772 16.19 8.603 24.303.429 1.228.554 2.561.392 4.326-2.576.495-4.772.797-6.862.455-3.075-.503-6.696-.66-8.97-2.412-3.93-3.029-6.778-2.255-9.838.684-2.66 2.556-3.539 8.787-1.214 10.697 2.989 2.456 6.342 4.341 9.985.742 1.157-1.143 2.528-2.07 4.28-3.033 4.981.005 9.483-.051 14.274-.096a24.84 24.84 0 0 1 1.425.192c.456 1.939.912 3.877 1.673 6.215.304.399.236.783-.223.804-13.453.03-26.447.036-39.79-.048-5.206-3.327-8.754-3.233-12.098.22-2.201 2.272-1.585 7.42 1.284 10.73h-20.708c-3.738-12.115-7.307-24.398-11.335-36.529-3.88-11.687-8.394-23.164-12.328-34.835-2.74-8.129-5.165-16.377-7.376-24.667-2.268-8.506-2.459-8.85-11.502-8.85H408.478c-4.218 11.866-8.395 22.908-12.059 34.117-3.75 11.472-6.89 23.142-10.508 34.66-1.915 6.095-4.334 12.03-6.42 18.074-1.563 4.53-3.41 9.034-4.275 13.708-.619 3.345-1.88 4.537-5.091 4.47-6.656-.136-13.315-.107-20.226-.465 2.766-5.12 2.03-8.158-2.776-10.697-.007.009-.026.019-.26-.302-2.453-.068-4.672.185-7.282.516-1.76.815-3.126 2.184-4.499 2.19-11.052.053-22.105-.15-33.158-.276 1.127-2.894 2.253-5.789 4.15-8.873 4.233.234 8.651-.533 10.964 1.324 5.352 4.296 7.635 4.687 12.219-.547 2.684-3.066 2.495-5.91-.387-8.533-2.68-2.44-6.043-5.493-9.108-1.457-3.265 4.3-7.273 4.114-11.634 3.99 1.887-6.407 3.689-12.843 5.702-19.211.857-2.71 2.156-5.281 3.559-8.495 1.138-.415 1.967-.217 2.807-.09 3.443.518 7.014 1.819 10.303 1.312 3.987-.616 5.659-6.041 3.438-8.936-2.658-3.463-7.502-4.768-11.56-2.98l-.481-3.415z" fill="#0B6E90"/>
        <path d="M280.053 162.45c-.305 3.952-.673 7.444-.947 11.583.093.647.18 1.002.085 1.317-.072.754-.047 1.191-.063 1.934-.042.715-.045 1.125-.07 1.885-.042.817-.06 1.283-.079 1.75-.005 2.086-.01 4.171.005 7.06.046 1.278.072 1.754.091 2.572-.023 1.026-.04 1.71-.061 2.738-.007.804-.007 1.264-.022 2.05-.02.766-.023 1.203-.027 1.64 0 2.05-.002 4.098.02 6.946.04 1.278.059 1.757.08 2.547.04.721.079 1.132.06 1.85-.065.724-.071 1.14-.09 1.914-.018.834-.021 1.31-.025 1.787.153 2.847.305 5.694.78 8.805.296 35.134.27 70.005.245 104.876-.002 2.957 0 5.915 0 9.466-2.284 0-4.21 0-6.626-.404-1.13-.858-1.77-1.312-2.5-2.163-.758-.792-1.422-1.528-2.092-1.532-10.983-.077-21.967-.11-32.949.021-.964.012-1.913 1.242-3.154 1.942-.606.34-.929.646-1.25.95l.628.547c.303-.51.607-1.02 1.378-1.53 12.823 0 25.176-.001 37.53.312l.001 1.565c-9.064.053-18.13.242-27.191.111-5.5-.08-11.011-.69-13.173 6.776a32.68 32.68 0 0 0-2.243 1.047l1.735 1.205c-.526 1.196-1.053 2.392-1.928 3.373-.69-.457-1.032-.7-1.374-.943l-.842 2.507c-2.075 2.042-4.15 4.084-6.633 5.819-.804-.618-1.2-.93-1.597-1.24-.085.259-.29.716-.238.747.487.291 1.016.51 1.534.75-1.141.722-2.282 1.445-3.757 1.818a131.086 131.086 0 0 0-1.485-1.486l-.826 2.004c-5.107 2.152-10.259 2.047-15.766-.229A19.134 19.134 0 0 0 195 355l-.048-.33c-.975-.148-1.902.035-2.865.25l-.106.1c-1.93-1.118-3.86-2.235-5.562-3.734a21.11 21.11 0 0 0 .785-2.048l-3.176-.297c-2.865-4.18-7.192-8.007-8.298-12.61-2.52-10.487 1.834-19.168 9.544-26.694 4.915-4.797 10.435-7.86 16.924-8.837 7.032-1.059 13.83.75 19.104 5.595 5.078 4.665 10.333 9.452 11.909 16.783.141.656 1.834 1.384 2.812 1.393 11.47.096 22.941.062 35.05.062 0-10.481 0-20.593.337-31.217.622-.836.906-1.161 1.191-1.486l-1.474-.928c-.047-2.046-.094-4.091.211-6.612.657-.785.962-1.096 1.266-1.407l-1.419-.98c-.089-9.976-.178-19.952-.25-30.814-.998-1.652-2.007-3.08-3.027-3.087a3387.405 3387.405 0 0 0-54.757.015c-1.058.009-2.102 1.681-3.152 2.58-1.42 1.7-3.007 3.29-4.222 5.127-2.147 3.243-4.068 6.636-6.483 9.684-.86-.473-1.32-.664-1.779-.854l.711 1.464c-3.61 2.825-6.814 6.831-10.911 8.244-10.163 3.505-19.797 1.362-27.912-6.076-.06-1.413-.342-2.444-.625-3.475l-1.76 1.132c-1.334-1.413-2.669-2.825-3.715-4.635.59-.713.894-1.029 1.197-1.345l-2.015-.808c-4.033-3.803-5.94-13.93-3.527-19.239.72-1.586 1.744-3.034 3.271-4.726a26.548 26.548 0 0 0 2.313-.937l-1.656-1.286c4.009-7.62 10.094-12.09 18.639-14.133 11.435-2.734 20.568.578 27.972 9.034 2.69 3.073 4.125 7.215 6.379 10.711.808 1.254 2.331 2.904 3.541 2.915 20.289.18 40.58.128 61.274.128v-93.947c-1.687-.102-3.43-.296-5.172-.3-13.647-.025-27.294.02-40.94-.06-1.705-.009-3.407-.61-5.356-1.647-1.202-1.361-2.154-2.57-3.117-2.58a1989.021 1989.021 0 0 0-41.316.039c-.69.008-1.358 1.786-2.037 2.74-1.575 11.648-9.46 18.796-19.135 22.996-7.403 3.214-16.108 3.86-23.236-2.554a7.735 7.735 0 0 1 1.15-1.286l-.63-.549-.914 1.548c-1.3-.616-2.6-1.232-3.987-2.554-.576-1.816-1.063-2.926-1.55-4.036l-1.433 1.513c-11.182-8.165-11.57-25.683-2.672-36.376 5.612-6.743 12.179-10.136 19.909-11.581 4.245-.794 9.2.34 13.439 1.774 9.077 3.072 14.56 10.048 18.283 18.684.488 1.132 2.747 2.09 4.205 2.117 9.81.185 19.629-.042 29.44.125 19.713.335 39.422.841 59.133 1.267 1.808.039 3.618.005 6.292.005 0-8.882 0-17.456.337-26.541.629-.834.92-1.158 1.212-1.482l-1.483-.935V53.666c-2.263-.12-4.017-.289-5.772-.292-13.655-.024-27.311.01-40.966-.053-1.553-.007-3.103-.498-4.365-.998 16.977-.232 33.664-.232 50.352-.232l-.023-2.088h-5.186c-38.412-.005-76.825-.009-115.237-.012-1.164 0-2.693-.45-3.409.12-1.166.927-1.8 2.523-2.66 3.836-1.459 12.714-13.79 22.478-27.621 22.58-15.468.113-25.464-11.908-29.425-22.687-3.064-8.34.518-16.408 5.95-23.395 7.955-10.23 18.345-14.154 30.811-11.207 4.002.946 7.915 3.602 11.095 6.365 4.438 3.855 9.724 7.572 9.272 15.51-.01 5.086 3.224 3.843 5.426 3.847 43.154.063 86.307.058 129.461.068.381 20.7.888 41.398 1.105 62.1.192 18.286.06 36.576.132 55.323m-82.983 75.118.916.967.545-.63c-.51-.301-1.02-.604-1.603-1.494l-.918-.987c-.32.49-.641.98-1.61 1.234-2.107-2.233-4.213-4.465-5.766-6.754l.915-.917c-.21-.177-.418-.355-.627-.533-.297.493-.595.986-1.693 1.489-4.125-.71-8.232-1.77-12.383-1.988-2.244-.118-4.564 1.203-6.848 1.265 0-.407.001-.814.57-1.291l.968-.916-.63-.545c-.302.51-.604 1.02-1.58 1.629-.442.93-.884 1.861-1.823 3.02-.431.32-.863.641-1.998.924l-1.997.624c.226.473.452.945.571 2.18-1.032 2.04-2.064 4.08-3.09 5.396l-.704-2.798-1.42.669c.704.958 1.408 1.917 2.138 3.798.008 3.693.016 7.386-.667 11.204l.52 4.688c.72-.283 1.441-.567 2.84-.681 2.125 2.28 4.25 4.56 5.855 7.247.58 1.159 1.162 2.317 1.743 3.476.907-.628 1.813-1.257 3.64-1.904 3.683.011 7.367.022 11.178.724l3.07 1.173.297-1.35c-1.171-.169-2.343-.338-3.257-1.15 3.597-2.772 7.194-5.543 10.857-7.75l.914.952.542-.628c-.505-.3-1.01-.602-1.53-1.71.735-3.95 1.877-7.883 2.055-11.858.108-2.425-1.266-4.917-1.337-7.358.426.005.851.01 1.347.583m-11.687 99.513.915 4.154c.574-.43 1.148-.86 2.391-1.119 2.111 2.606 4.222 5.212 6.337 8.577l1.85 2.22c.709-.652 1.417-1.304 3.047-2.017 3.692.025 7.384.051 11.165.706l.906.92c.293-.635.587-1.269 1.355-2.385 7.806-4.796 12.042-11.532 10.755-20.9-.825-6.01-4.003-10.774-8.407-14.35l.398-1.748c-1.075.03-2.15.06-4.142.097-5.662.562-11.324 1.125-17.045 1.133l-.905-.921-.551.607c.483.3.967.599 1.215 1.515-1.519 1.19-3.038 2.38-4.68 2.976-.404-.335-.806-.673-1.224-.99-.011-.008-.195.21-.298.323.559.41 1.117.82 1.677 1.95-1.326 1.5-2.653 3-4.127 3.833l-1.622-.792c.527 1.043 1.054 2.086 1.656 4.052-.008 4.023-.016 8.046-.666 12.159m-34.581-213.879c-5.602.57-11.204 1.141-16.908 1.1l-.943-.835a19.525 19.525 0 0 1-1.215 2.428c-1.208.749-2.417 1.498-3.748 1.652-.405-.336-.807-.673-1.225-.99-.011-.009-.195.21-.298.323.56.41 1.118.82 1.674 1.99-1.504 3.375-3.008 6.75-5.246 10.17-2.889 2.875-2.707 4.307 1.036 6.673.032.758.063 1.516-.447 2.723l.54 4.453c.665-.313 1.33-.626 2.679-.762 2.454 2.28 4.908 4.56 6.848 7.237l1.729 3.458c.578-.62 1.157-1.24 2.658-1.928 4.017.027 8.033.053 12.156.748l2.082.918.382-1.092c-.863-.163-1.726-.325-2.342-1.126 3.6-2.773 7.199-5.546 10.864-7.755l.915.952.542-.628c-.505-.301-1.01-.602-1.53-1.711 2.994-6.4 3.147-12.812.63-19.295l.918-.905-.607-.55c-.3.482-.6.964-1.528 1.22-1.85-2.087-3.702-4.174-5.56-7.059-1.054-.502-2.108-1.004-4.056-1.409m-33.415-94.47c-3.088.378-6.456.09-9.216 1.248-12.607 5.288-14.937 18.431-5.617 30.146 8.468 10.642 26.343 9.211 31.16-3.265 4.604-11.924 1.294-26.898-16.327-28.13M248.5 141.002h21.842l-.065-1.31H219.7V141h28.8m-92.162 108.408.477-4.742-1.614-.013c.138 1.581.276 3.162 1.137 4.755m27.64 81.086-.952-2.051-1.059.342.87 3.644c.372-.407.743-.815 1.141-1.935m-15.274-57.928.857-.817c-.113-.118-.318-.345-.326-.339-.301.254-.584.53-.53 1.156m-49-142.999.856-.817-.34-.355c-.284.273-.57.546-.516 1.172m66.998 142.999.857-.817c-.113-.118-.318-.345-.326-.339-.301.254-.584.53-.53 1.156m8.688 32.636 1.182.012c.002-.163.015-.469.004-.47-.393-.03-.787-.032-1.186.458m18.904-.77-.857.817c.113.118.318.345.326.339.301-.255.584-.53.53-1.156m10.097 16.769 1.183.013c.001-.164.014-.47.003-.47-.393-.031-.787-.033-1.186.457m47.04 5.502.818.857c.118-.113.345-.318.339-.326-.255-.301-.53-.584-1.156-.53m-69.002-73.001c.273.285.546.57.818.857.118-.114.346-.319.339-.326-.254-.302-.53-.585-1.157-.531m4.865-5.272-.857.817c.113.119.318.346.326.34.301-.255.585-.531.531-1.157m64.502-6.04-.012 1.182c.163.002.47.014.47.003.03-.392.032-.786-.458-1.185m-66.502.04-.857.818c.113.118.318.345.326.339.301-.255.584-.53.531-1.157z" fill="#3B95B4"/>
        <path d="M721 371.637h-64.724V354.05h41.337V235.37h-41.376v-17.58h107.529v17.217H722.39v118.688h41.456v17.943H721z" fill="#213A13"/>
        <path d="M680.842 49v107.355h83.864v17.521H657.12V20.383h23.722V49z" fill="#213A13"/>
        <path d="M816.85 171.432c-1.91 2.475-3.577 4.846-5.79 6.47-2.778 2.039-6.052 3.386-9.026 5.176-3.257 1.96-6.44 1.93-9.661.047-2.862-1.673-5.623-3.54-8.571-5.04-5.458-2.778-7.373-7.14-6.35-13.01.029-.16.004-.33.004-.497.001-13.127.94-14.516 12.944-19.547.964-.404 1.776-1.198 2.619-1.86 2.921-2.298 5.524-2.043 8.578.181 3.516 2.561 7.43 4.61 11.296 6.644 3.386 1.782 4.198 4.482 4.01 8.048-.228 4.306-.054 8.634-.054 13.388z" fill="#273E18"/>
        <path d="M777.464 228.007c-1.251-8.764 2.095-13.99 10.293-16.023.467-.115.98-.364 1.301-.708 5.422-5.8 10.833-5.064 16.463-.229 1.16.996 3.028 1.113 4.397 1.926 3.7 2.197 7.755 4.163 6.97 9.706-.277 1.96-.31 4.034.004 5.983 1.247 7.765-.938 13.294-8.969 16.007-2.536.857-4.391 3.65-6.918 4.644-2.13.837-5.2 1.216-7.116.282-4.922-2.398-9.595-5.417-14.012-8.671-1.388-1.023-1.996-3.52-2.327-5.452-.39-2.265-.088-4.649-.086-7.465z" fill="#263D17"/>
        <path d="M535.72 194.767c-1.056.932-2.532 1.664-3.09 2.833-1.859 3.895-5.06 4.272-8.275 2.873-3.751-1.632-5.002-5.109-4.074-9.07.405-1.725 1.418-3.306 2.872-5.193 1.092-2.08 1.79-3.917 1.793-5.757.09-41.495.103-82.991.13-124.487.929 1.723 2.05 3.372 2.747 5.184 1.524 3.966 2.833 8.015 3.802 12.66-.544 2.613-.76 4.596-.761 6.58-.02 29.63-.031 59.261 0 88.892.008 8.458-1.35 17.208 4.751 24.505.175.21.076.648.104.98z" fill="#8DDCF6"/>
        <path d="M403.546 79.105c.352 31.553.417 63.212.291 94.87-.028 6.985-.401 13.89 5.164 19.322-1.178 1.508-2.184 2.58-2.94 3.805-2.35 3.81-5.46 5.27-9.482 2.802-3.845-2.36-4.666-7.068-2.307-11.304.403-.723.776-1.462 1.866-2.428 1.09-1.232 1.81-2.227 1.813-3.224.055-27.535.06-55.071-.047-82.606-.005-1.107-1.174-2.21-1.801-3.315 2.362-5.939 4.725-11.877 7.443-17.922m-3.275 111.098-1.974 3.958 5.305.591 1.174-2.299c-1.252-.721-2.504-1.442-4.505-2.25z" fill="#8EDCF6"/>
        <path d="M535.809 194.84c-.118-.405-.019-.844-.194-1.053-6.102-7.297-4.743-16.047-4.752-24.505-.03-29.63-.02-59.262 0-88.893.002-1.983.218-3.966.7-6.182 3.033 6.852 5.7 13.937 7.947 21.514-.784 2.347-1.461 4.2-1.466 6.056-.067 29.273-.013 58.546-.13 87.819-.007 1.826-1.2 3.647-1.84 5.47 0 0-.175-.152-.265-.226z" fill="#0B6E90"/>
        <path d="M654.326 477.95c2.444-1.939 4.476-3.799 6.508-5.66l-.892-1.324h-10.678l-.386-5.337h18.035c2.032 8.423-2.721 16.014-11.505 18.557-8.93 2.586-18.505-2.348-21.294-10.97-3.054-9.442 1.472-19.18 10.43-22.439 8.82-3.21 17.995.606 21.986 10.182-3.358-.641-6.519-.418-8.605-1.808-5.142-3.425-8.971-4.1-13.16-1.076-3.886 2.807-5.46 8.476-3.74 13.475 1.628 4.728 5.799 7.206 11.418 6.764.495-.038.98-.187 1.883-.364z" fill="#2B431D"/>
        <path d="M514.514 463.462c2.043 3.02 3.864 5.753 6.552 9.785v-22.998h6.769v33.784c-4.285 1.498-7.096.294-9.436-3.689-3.524-6-7.636-11.655-12.284-18.637v22.486h-6.995v-33.761c4.403-1.175 7.504-.325 9.55 3.927 1.5 3.118 3.722 5.889 5.844 9.103z" fill="#284019"/>
        <path d="M218.046 479.781c.032-9.782.06-19.09.114-28.396.001-.287.254-.572.469-1.026 5.2 0 10.482-.259 15.726.084 3.982.26 7.404 2.015 8.643 6.318 1.23 4.279-.551 7.396-4.08 9.784 1.41 1.493 3.05 2.732 4.036 4.365 3.186 5.275.196 12.018-6.104 12.939-5.386.787-10.929.733-16.386.556-.85-.027-1.614-2.699-2.418-4.624m12.224-.863c3.434-.12 7.042-.167 6.737-5.072-.238-3.833-3.795-4.869-11.732-3.512v8.585h4.995m-4.55-22.893-.79 8.007c3.155 0 5.627.505 7.714-.173 1.452-.471 3.283-2.57 3.278-3.937-.005-1.322-1.914-3.21-3.403-3.802-1.724-.687-3.904-.23-6.798-.095z" fill="#2F8EAF"/>
        <path d="M598.934 479.044c-5.864-8.38-5.616-17.845.418-24.012 5.695-5.82 15.791-7.012 22.52-2.658 8.008 5.181 10.29 16.426 5.014 24.717-4.894 7.692-15.78 10.142-23.813 5.29-1.409-.851-2.628-2.015-4.139-3.337m9.731-.985c1.309.216 2.622.64 3.925.611 4.57-.103 8.328-3.334 9.587-8.048 1.46-5.47-.524-10.954-5.074-13.4-4.279-2.3-8.358-1.663-12.024 1.466-4.725 4.032-4.995 15.767 3.586 19.37z" fill="#284019"/>
        <path d="M545.114 450.677c9.854-2.122 17.11.638 21.017 7.718 3.736 6.769 2.824 15.531-2.17 20.845-5.015 5.338-12.91 7.185-19.678 4.4-7.028-2.893-10.519-8.45-10.987-15.858-.474-7.503 3.684-13.477 11.818-17.105m-2.364 23.807c4.422 4.644 9.01 5.53 13.57 2.62 4.287-2.737 6.227-8.84 4.482-14.093-1.578-4.746-6.183-7.6-11.26-6.98-7.834.958-11.28 9.393-6.792 18.453z" fill="#284019"/>
        <path d="M80.386 449.928c10.378-.268 17.161 3.967 19.465 11.853 2.294 7.856-.518 16.203-6.985 20.175-6.547 4.022-13.235 4.024-19.74-.074-5.955-3.751-8.752-10.79-7.219-18.27 1.567-7.647 6.433-12.116 14.48-13.684m6.012 28.18c6.028-3.297 8.021-7.348 6.687-13.894-.975-4.781-4.038-7.565-8.81-8.15-4.089-.501-7.59.872-9.776 4.566-2.578 4.357-2.63 8.911-.027 13.206 2.518 4.155 6.46 5.474 11.926 4.272z" fill="#2F8EAF"/>
        <path d="M470.353 454.357v9.545h14.658v-13.63h6.645v33.941h-6.467v-13.985h-14.713v14.02h-6.82v-33.905h6.315c.116 1.082.25 2.319.382 4.014z" fill="#2B431D"/>
        <path d="M907.37 475.154c-.18-2.873-.619-5.426-.187-7.822 1.749-9.698 10.646-12.982 20.81-7.441V448.33h6.898v36.595l-7.5-1.669c-9.158 4.158-16.094 1.977-20.022-8.102m6.692-3.018c.913 4.25 3.436 7.485 7.815 6.41 2.397-.587 5.124-3.632 5.918-6.135 1.455-4.588-1.591-8.781-5.636-9.362-4.606-.662-7.481 2.249-8.097 9.087z" fill="#263D17"/>
        <path d="M514.024 105.01c-.549.183-1.098.365-2.284.799-3.274.136-5.91.021-8.547-.094-2.784-3.947-2.336-7.657.5-11.448.885-1.183 1.4-2.943 1.404-4.44.056-23.276 0-46.552-.104-70.285 1.694-.467 3.463-.476 5.642-.047.505 1.506.598 2.574.691 3.642-.047 22.15-.217 44.3.027 66.445.028 2.51 2.389 4.995 4.054 7.953.42 2.1.454 3.737.487 5.374 0 0 .106.087-.268.085-.783.67-1.192 1.343-1.602 2.016m-7.119-3.244 3.914-.353-.526-3.805-6.048 1.831c.11.364.218.728.327 1.093.607.245 1.214.49 2.333 1.234z" fill="#8DDCF6"/>
        <path d="M14.074 464.995c1.46-4.118 2.993-7.806 4.12-11.616.809-2.728 2.272-3.539 5.027-3.419 2.651.115 4.595.212 5.645 3.365 3.433 10.31 7.211 20.507 10.887 30.832-4.452 1.043-7.712.99-8.87-3.975-.215-.925-2.018-1.961-3.182-2.088a38.728 38.728 0 0 0-8.447.003c-1.157.13-2.933 1.202-3.153 2.144-1.179 5.038-4.473 4.908-8.825 3.902a4111.177 4111.177 0 0 0 6.798-19.148m12.042 7.303c.524-.739 1.638-1.659 1.476-2.187-1.12-3.651-2.508-7.221-4.182-11.847l-4.71 14.052c2.662 0 4.602 0 7.415-.018z" fill="#308FAF"/>
        <path d="M298.664 458.545c.698-1.93 1.394-3.466 1.752-5.077.613-2.764 2.112-3.691 4.959-3.508 2.563.164 4.566-.003 5.635 3.226 3.429 10.354 7.243 20.58 10.927 30.908-4.564 1.175-7.903.92-8.94-4.295-.153-.764-1.869-1.663-2.906-1.723-3.636-.211-7.292-.082-10.798-.082-3.19 6.799-3.19 6.799-9.777 6.174 3.031-8.514 6.013-16.888 9.148-25.623m8.143 2.476-1.374-2.127-4.421 13.085h9.419c-1.26-3.735-2.355-6.982-3.624-10.958z" fill="#29411B"/>
        <path d="M185.484 471.35c2.312-6.448 4.34-12.59 6.702-18.598.458-1.166 2.217-2.545 3.38-2.548 2.063-.006 5.504.42 5.98 1.614 4.199 10.553 7.872 21.316 11.802 32.301-4.32.851-7.742 1.472-8.748-3.842-.175-.925-1.994-2.057-3.15-2.178-2.955-.309-5.98-.268-8.945-.009-1.018.09-2.63 1.101-2.798 1.93-1 4.942-4.136 5.314-8.75 4.101 1.46-4.162 2.91-8.29 4.527-12.771m14.779.827-2.045-12.636-1.646.09-4.303 12.658c2.888 0 4.98 0 7.994-.112z" fill="#308FAF"/>
        <path d="M431.638 471.016c4.36 8.682 10.15 9.747 17.25 4.126 1.874-1.483 5.055-1.314 8-1.987-1.963 7.82-8.977 12.401-16.734 11.653-9.056-.873-15.584-7.384-16.118-16.075-.573-9.323 5.062-16.984 13.724-18.658 8.689-1.679 16.155 2.31 19.245 10.598-3.649.33-6.603.606-9.772-2.46-5.515-5.333-14.745-1.102-15.961 6.993-.264 1.76.137 3.62.366 5.81z" fill="#284019"/>
        <path d="M421.637 30.033c.45 18.209.675 36.523.518 54.835-.038 4.54.896 8.41 3.627 11.933 2.931 3.78.417 6.423-2.043 8.904-3.5 3.53-6.928 1.242-9.537-1.047-2.316-2.032-3.05-5.117-.84-8.17 1.111-1.533 2.666-3.309 2.677-4.984.096-14.64-.112-29.283-.565-44.18a58.443 58.443 0 0 1 2.507-9.353c.958-2.661 2.184-5.226 3.656-7.938z" fill="#8EDCF6"/>
        <path d="M744.143 470.749c-3.14-1.21-6.086-1.967-8.668-3.388-6.467-3.56-6.377-12.07.013-15.731 8.153-4.673 17.43-1.252 19.406 7.541-3.165.03-6.186 1.489-8.793-2.143-.833-1.16-3.913-1.144-5.853-.872-.878.123-2.368 2.634-2.04 3.28.803 1.58 2.302 3.082 3.888 3.927 2.318 1.234 5.434 1.298 7.34 2.897 2.46 2.063 5.062 4.903 5.788 7.854.969 3.941-1.47 7.18-5.34 9.16-8.15 4.168-17.978.03-18.823-8.384 3.124-.097 6.21-1.478 8.467 2.578.644 1.158 3.867 1.319 5.829 1.128 1.019-.1 2.845-2.348 2.605-2.96-.69-1.76-2.244-3.182-3.819-4.887z" fill="#273E18"/>
        <path d="M266 476.648c-1.056-2.232-1.906-4.632-3.605-5.8-2.11-1.452-4.958-1.794-7.421-2.78-3.736-1.493-5.936-4.217-5.96-8.363-.025-4.33 2.209-7.124 6.11-8.816 8.103-3.514 16.784.379 17.893 9.668-3.275-1.354-5.789-2.565-8.417-3.425-1.93-.63-4.054-1.205-6.003-.993-.894.097-2.488 2.614-2.178 3.212.827 1.598 2.31 3.134 3.908 3.99 2.317 1.24 5.04 1.696 7.454 2.787 3.552 1.606 6.1 4.246 6.056 8.387-.043 3.96-2.034 6.845-5.612 8.757-7.947 4.245-17.705.211-19.084-8.374 3.153-.161 5.97-1.48 8.549 2.381 1.989 2.977 5.489 2.604 8.31-.63z" fill="#2F8EAF"/>
        <path d="M406.39 457.966c-.013 2.166-.013 3.826-.013 5.97h11.272v6h-11.08v8.773h12.626v5.569h-19.523v-33.884h19.575l.26 5.439c-3.243 0-6.178-.168-9.08.073-1.374.115-2.684 1.012-4.036 2.06z" fill="#314823"/>
        <path d="M342.285 473.01v6.853c2.383.242 4.683.318 6.903.78.846.175 1.51 1.234 2.256 1.89-.72.697-1.432 1.988-2.16 1.997-7.312.093-14.628.03-21.939-.163-.78-.02-1.533-1.15-2.298-1.764.856-.694 1.624-1.782 2.588-1.999 1.913-.43 3.934-.38 6.196-.55v-24.635c-2.73-1.905-7.984 1.867-9.086-4.951 8.497 0 16.533-.054 24.565.091.722.013 1.421 1.313 2.13 2.014-.73.695-1.374 1.834-2.208 1.995-2.089.404-4.263.365-6.947.54v17.902z" fill="#2E4521"/>
        <path d="M687.93 484.784c-4.638-.008-8.804.166-12.936-.138-1.229-.09-2.359-1.523-3.534-2.34 1.146-.67 2.22-1.651 3.455-1.932 1.715-.392 3.55-.258 5.517-.358V455.14c-2.168-.13-4.333-.04-6.385-.48-.98-.21-1.746-1.424-2.61-2.183.901-.724 1.785-2.05 2.706-2.076 6.802-.192 13.615-.226 20.417-.03 1.018.03 1.995 1.526 2.99 2.343-1.102.706-2.128 1.786-3.324 2.028-1.725.348-3.573.089-5.613.089v25.137c2.019.14 4.163.081 6.201.52 1.015.217 1.835 1.347 2.742 2.064-.888.715-1.703 1.89-2.682 2.048-2.108.34-4.302.155-6.945.185z" fill="#2E4521"/>
        <path d="M721.552 455.825h-9.12v8.152h11.08l.48 5.826h-11.625v8.846h12.588v5.593H705.5v-33.97h19.342c-.119 2.247 2.565 5.695-3.29 5.553z" fill="#2E4521"/>
        <path d="M468.592 18.977c.37 20.459.306 40.843-.136 61.8-4.055 4.788-5.388 9.933-6.272 14.814-.099-25.833-.13-51.2-.163-76.565 2.046-.041 4.092-.082 6.57-.049z" fill="#87D2EC"/>
        <path d="M385.533 130.032c.376 19.903.367 39.895.43 59.887.007 2.134.432 4.266.947 6.988.26.975.237 1.361.206 2.103.622.9 1.253 1.446 1.969 2.4.024 1.8-.036 3.19-.096 4.579 0 0 .011.011-.32.048-.784.676-1.236 1.314-1.689 1.952-2.641 2.946-5.521 2.756-8.314.244 1.725-2.022 4.78-2.979 2.353-6.15-1.194-1.56-2.038-3.388-3.04-5.095.645-2.743 1.8-5.477 1.847-8.23.202-12.066.119-24.137.036-36.205-.01-1.508-.629-3.011-1.382-4.53 1.952-5.977 4.32-11.94 7.053-17.991m.2 69.87-1.499.165.345 1.343c.426-.303.853-.606 1.154-1.508m-1.458 3.978.577 1.633.838-.382c-.327-.56-.653-1.12-1.415-1.25z" fill="#8DDAF5"/>
        <path d="M581.27 368.959c-3.333-3.387-3.949-8.535-1.748-10.807 3.344-3.453 6.892-3.547 12.187.182.934.854 1.432 1.524 1.935 1.528 12.08.104 24.16.17 36.24.093.666-.005 1.324-1.301 1.985-1.996 0 0 .068-.384.082-.577.701.826 1.542 1.778 2.042 2.883a15.687 15.687 0 0 1 1.385 5.448c-13.497.303-26.547.117-39.592.313-1.903.029-3.778 1.875-5.666 2.88-2.796.044-5.591.087-8.85.053z" fill="#8DDAF5"/>
        <path d="M105.833 452.219c.851-1.045 1.674-2.079 2.52-2.099 5.978-.142 11.96-.075 18.303-.075v5.692H113.2v8.479h10.228l.378 5.559-10.96.49v13.98h-7.03c0-10.635 0-21.091.017-32.026z" fill="#3391B0"/>
        <path d="M824.33 478.499c-.855 4.856-3.23 7.235-7.939 5.99-1.322-.349-3.034-1.37-3.488-2.511-3.165-7.953-6.047-16.019-9.07-24.187 4.945-1.722 7.897-.782 9.137 4.567 1.1 4.744 2.94 9.316 4.937 15.453 1.988-5.829 3.865-10.176 4.914-14.715 1.137-4.92 3.413-7.228 9.204-5.51-2.509 6.83-5.03 13.69-7.695 20.913z" fill="#2B431D"/>
        <path d="M378.18 457.153c-2.888-.94-5.728-1.397-8.812-1.893v-4.97h24.75v5.578h-8.858v28.403h-7.033c0-9.08 0-17.858-.047-27.118z" fill="#2E4521"/>
        <path d="M479.6 19.118c.431 4.454-.644 9.19.652 13.15 3.258 9.954.886 19.995 1.736 29.938.014.165-.005.332.003.498.126 2.94.348 5.505-4.133 5.438-4.228-.063-3.864-2.481-3.859-5.222.025-14.283.006-28.566-.006-43.308 1.72-.494 3.45-.53 5.606-.494z" fill="#1C80A2"/>
        <path d="M890.562 475.398c-.022-3.268.191-6.123-.123-8.918-.143-1.265-1.588-2.335-1.984-3.633-.51-1.672-.56-3.485-.807-5.237 4.444-.503 2.17-4.343 3.326-6.856h6.368l.425 6.15 5.703.457v5.304l-5.889.582c0 3.122.192 6.24-.046 9.325-.325 4.202.65 6.99 5.99 6.176.09 1.9.166 3.483.24 5.007-8.305 2.117-12.144-.263-13.203-8.357z" fill="#2E4521"/>
        <path d="M138.631 456.408c-2.922-.51-5.54-.654-8.393-.812v-5.283h24.694l.245 5.262-9.014.474v28.239h-7.228c0-9.326 0-18.42-.304-27.88z" fill="#308FAF"/>
        <path d="M575.638 484.576c-.961-.883-1.932-1.75-1.941-2.625-.106-10.474-.068-20.948-.068-31.672h6.827V478.9h11.243v5.689c-5.358 0-10.491 0-16.061-.013z" fill="#314823"/>
        <path d="M44.325 469.994v-19.66h7.069v28.382h11.128l.453 5.53h-18.65v-14.252z" fill="#3A95B4"/>
        <path d="M548.928 195.094c.381.91.918 1.79 1.115 2.738.55 2.646 1.97 5.697 1.158 7.886-.956 2.575-3.633 6.003-7.16 4.049-2.48-1.375-4-4.493-5.91-6.865-.164-.204-.03-.647.304-1.462.854-1.73 1.369-2.977 2.097-4.399.37-.693.526-1.21.996-1.717.716-.094 1.117-.198 1.91-.405.774-1.941 1.484-3.78 1.49-5.62.08-25.765.064-51.531.072-77.297 1.285 2.129 2.57 4.257 3.462 6.821-.734 1.3-1.367 2.164-1.37 3.03-.058 23.28-.078 46.56.024 69.84.005 1.137 1.181 2.268 1.812 3.401z" fill="#ACE8FD"/>
        <path d="M843.816 484.273c-5.002-.9-6.58-4.098-6.708-8.328-.084-2.827.093-5.664-.057-8.485-.098-1.847 1.21-4.5-2.4-4.916-.29-.033-.752-3.41-.187-4.867.838-2.159 2.524-3.989 3.849-5.959l-.933-.946h6.489l.415 6.174 5.585.342.316 5.348-6.091.572c0 3.104.153 6.23-.038 9.336-.25 4.08.222 7.295 5.819 6.03v5.746c-1.863 0-3.763 0-6.06-.047z" fill="#284019"/>
        <path d="M609.982 296.679c-6.67.455-13.317.804-19.926.448-4.223-.228-7.83.792-10.886 3.37-3.637 3.067-7.208 1.439-8.857-1.264-1.362-2.232-1.305-6.648.075-8.902 1.716-2.803 5.237-3.966 8.926-1.197 1.805 1.355 4.565 1.9 6.92 1.975 7.29.234 14.591.067 22.355-.026.788 1.675 1.109 3.433 1.393 5.596z" fill="#8EDCF6"/>
        <path d="M160.116 476.902v-26.567h6.766v28.559h11.074c1.552 4.415.36 6.028-3.855 5.802-4.436-.238-8.895-.053-13.985-.053v-7.74z" fill="#3391B0"/>
        <path d="M873.915 464.005v14.789h10.857l.399 5.396h-18.022v-33.958h6.766v13.773z" fill="#29411B"/>
        <path d="M541.214 195.314c-.156.517-.312 1.034-1.03 1.704-1.143.755-1.724 1.359-2.305 1.962-.616-1.064-1.232-2.128-1.826-3.553.662-2.184 1.854-4.005 1.861-5.831.117-29.273.063-58.546.13-87.819.005-1.855.682-3.71 1.431-5.667.805 1.914 1.225 3.932 1.556 6.818-.073 6.009-.057 11.149-.041 16.288l.224 76.098z" fill="#05688A"/>
        <path d="M326.095 293.496c5.131-.303 10.134-.04 15.086-.424a28.167 28.167 0 0 0 9.12-2.327c4.895-2.184 10.177-.726 12.015 3.588 1.753 4.116-1.127 6.167-3.709 7.657-1.907 1.101-5.89 1.85-6.82.824-3.557-3.92-7.793-3.73-12.264-3.651-4.814.085-9.63.05-14.903.065.136-1.814.73-3.627 1.475-5.732z" fill="#92DFF8"/>
        <path d="M278.827 44.6c-43.165.418-86.318.423-129.472.36-2.202-.004-5.436 1.239-5.408-3.431.695-.086 1.385.242 2.72.933 24.392.447 48.14.533 71.888.619 19.157-.065 38.313-.148 57.47-.14.938 0 1.875.803 2.802 1.66z" fill="#52A2BD"/>
        <path d="M525.052 55.59c-.003 41.872-.016 83.368-.106 124.863-.004 1.84-.7 3.677-1.494 5.56-.42-44.408-.423-88.858-.35-133.789.692.676 1.31 1.834 1.95 3.367z" fill="#3598BA"/>
        <path d="M630.004 350.6c-.422.301-.801.24-1.612-.21-5.232-1.424-10.062-2.997-14.61.413-1.273 1.026-2.644 1.952-3.801 3.095-3.643 3.6-6.996 1.714-9.985-.742-2.325-1.91-1.447-8.14 1.214-10.697 3.06-2.939 5.909-3.713 9.839-.684 2.273 1.751 5.894 1.91 8.969 2.412 2.09.342 4.286.04 6.931-.036 1.364 1.988 2.231 4.038 3.055 6.449z" fill="#8DDAF5"/>
        <path d="M144.208 53.797c.498-1.163 1.133-2.759 2.299-3.686.716-.57 2.245-.12 3.409-.12 38.412.003 76.825.007 115.237.012h5.186l.023 2.088c-16.688 0-33.375 0-50.478-.083-23.204-.02-45.993 0-68.782.17-2.182.016-4.356.957-6.894 1.62z" fill="#52A2BD"/>
        <path d="M589.284 244.119c-.38 3.6-2.397 6.063-5.941 6.01-2.34-.034-6.074-1-6.667-2.526-.981-2.525-.115-5.866.323-8.811.327-2.194 1.686-4.291 1.754-6.457.223-7.146.069-14.304.164-21.922 2.079 3.348 4.052 7.161 5.605 11.412-1.623 6.714-3.402 13.03 2.607 18.165 1.095.935 1.455 2.73 2.155 4.129z" fill="#9FE4FC"/>
        <path d="M453.653 19.12a1013.9 1013.9 0 0 1 .272 41.872c-.034 2.356 1.994 6.7-2.282 6.744-4.926.052-2.388-4.59-2.496-7.002a280.873 280.873 0 0 1-.051-23.876c.228-5.64 1.217-11.25 1.867-17.266.771-.444 1.54-.495 2.69-.472z" fill="#2084A6"/>
        <path d="M307.768 346.011c4.72.013 8.729.199 11.994-4.1 3.065-4.037 6.427-.984 9.108 1.456 2.882 2.623 3.071 5.467.387 8.533-4.584 5.234-6.867 4.843-12.22.547-2.312-1.857-6.73-1.09-10.656-1.523.033-1.606.53-3.205 1.387-4.913z" fill="#8DDCF6"/>
        <path d="M617.887 314.718c-3.498.285-6.827-.704-9.589 3.403-.934 1.389-6.656 1.164-8.918-.294-4.16-2.682-3.977-6.775-.345-10.895 2.268-2.573 5.03-4.356 8.464-1.375 1.782 1.547 3.754 2.875 6.06 4.62.23-1.53.37-2.466.566-3.757.68.629 1.45 1.551 1.9 2.61.73 1.72 1.253 3.53 1.862 5.688z" fill="#8DDAF5"/>
        <path d="M321.547 304.183c.506 1.022.664 2.142.83 3.316 4.058-1.787 8.902-.482 11.56 2.981 2.22 2.895.55 8.32-3.438 8.936-3.29.507-6.86-.794-10.303-1.313-.84-.126-1.669-.324-2.768-.287a134.875 134.875 0 0 1 4.12-13.633z" fill="#8DDAF5"/>
        <path d="M301.561 360.06c11.416.061 22.47.265 33.521.212 1.373-.006 2.739-1.375 4.944-2.17 2.914-.111 4.992-.163 7.071-.215 0 0 .02-.01-.076.357-3.334 2.074-7.127 3.146-8.072 7.484-.043.196-1.21.149-1.875.231-.022.017-.025-.034-.133-.424-1.444-.768-2.778-1.467-4.115-1.475-10.892-.063-21.784.004-32.676.03.35-1.322.7-2.645 1.411-4.03z" fill="#B7EAFC"/>
        <path d="M541.528 195.324c-.389-25.376-.463-50.742-.538-76.108-.016-5.14-.032-10.28.029-15.893.75.947 1.423 2.368 2.046 4.644-.04 29.589-.03 58.322-.018 87.054-.402.105-.803.209-1.519.303z" fill="#3194B6"/>
        <path d="M210.454 250.82c.595-1.022 1.639-2.694 2.697-2.703 18.251-.16 36.505-.15 54.757-.015 1.02.008 2.03 1.435 3.04 2.628-20.015.355-40.027.283-60.494.09z" fill="#3A95B4"/>
        <path d="M396.055 97.411c.675.72 1.844 1.824 1.849 2.93.107 27.536.102 55.072.047 82.607-.002.997-.723 1.992-1.526 3.03-.412-26.107-.403-52.258-.417-78.408 0-1.32-.196-2.638-.594-4.252.002-2.039.298-3.78.64-5.907z" fill="#3598BA"/>
        <path d="M543.438 194.92c-.402-28.631-.413-57.364-.345-86.568.687.655 1.296 1.783 1.906 3.28-.007 26.136.01 51.902-.07 77.667-.007 1.84-.717 3.679-1.49 5.62z" fill="#83DFFF"/>
        <path d="M459.89 102.997c-.632-1.653-1.805-3.303-1.812-4.959-.115-25.988-.08-51.977-.076-78.425.443-.507.883-.555 1.677-.085.381 27.557.408 54.596.457 81.948a10.922 10.922 0 0 1-.246 1.521z" fill="#05688A"/>
        <path d="M460.115 101.162c-.028-27.038-.055-54.077-.107-81.575.426-.513.877-.566 1.67-.59.375 25.395.407 50.76.433 76.978-.67 2.296-1.333 3.742-1.996 5.187z" fill="#2689AA"/>
        <path d="M548.97 194.619c-.673-.658-1.849-1.79-1.854-2.925-.102-23.28-.082-46.561-.023-69.842.002-.865.635-1.73 1.358-2.658.719 1.688 1.054 3.44 1.344 5.571-.27 2.15-.686 3.92-.692 5.69-.065 21.23-.07 42.46-.133 64.164z" fill="#59BCDD"/>
        <path d="M218.445 42.758c-23.638.237-47.386.151-71.332.072.752-.386 1.7-1.116 2.651-1.12 22.13-.068 44.26-.066 66.39-.03.727.001 1.454.492 2.29 1.078z" fill="#3B95B4"/>
        <path d="M173.237 145.922c.195-1.009.864-2.787 1.553-2.795 13.771-.164 27.544-.161 41.316-.038.963.008 1.915 1.218 2.916 2.266-15.07.472-30.185.547-45.785.567z" fill="#3A95B4"/>
        <path d="M590.58 368.928c1.428-1.027 3.303-2.873 5.206-2.902 13.045-.196 26.095-.01 39.6.071 1.228 2.66-.14 2.997-2.38 2.98-13.988-.104-27.977-.097-42.426-.149z" fill="#187C9E"/>
        <path d="M337.096 365.943c.643-.066 1.81-.019 1.853-.215.945-4.338 4.738-5.41 8.08-7.493 4.9 2.172 5.636 5.21 2.416 10.32-3.662.377-7.124.445-11.045.196-.618-.62-.852-.844-1.161-1.293-.046-.708-.095-1.112-.143-1.515z" fill="#8EDCF6"/>
        <path d="M353.064 250.137c-2.208.223-4.416.446-6.834.008.848-1.801 1.778-3.107 2.992-4.046 2.64-2.042 3.109-3.647-.423-5.168-.737-.317-1.204-1.26-1.795-1.916 1.061-4.94 2.122-9.882 3.587-14.477.377 4.144.172 7.954.424 11.734.081 1.218 1.366 2.355 2.1 3.53 0 0 .027.153-.045.638-.05 3.556-.028 6.626-.006 9.697z" fill="#B7EAFC"/>
        <path d="M589.615 244.08c-1.03-1.36-1.391-3.155-2.486-4.09-6.01-5.135-4.23-11.45-2.645-17.778 2.774 6.968 5.164 13.987 7.508 21.4-.712.405-1.378.417-2.377.468z" fill="#3A95B4"/>
        <path d="M337.074 365.96c.07.386.119.79-.32 1.574-12.663.347-24.842.314-37.02.28-.002-.42-.004-.842.6-1.541 12.644-.302 24.68-.325 36.715-.348 0 0 .003.051.025.034z" fill="#3598BA"/>
        <path d="M336.94 365.535c-11.926.413-23.962.436-36.466.452-.463-.43-.458-.853-.389-1.586 10.957-.337 21.85-.404 32.74-.34 1.338.007 2.672.706 4.116 1.474z" fill="#83DFFF"/>
        <path d="M346.612 239.034c.983.636 1.45 1.58 2.187 1.897 3.532 1.521 3.063 3.126.423 5.168-1.214.939-2.144 2.245-3.262 3.764-1.094-.231-2.127-.842-3.473-1.477a53.809 53.809 0 0 1 4.125-9.352z" fill="#ACE8FD"/>
        <path d="M299.379 367.86c12.533-.012 24.712.021 37.374-.021.795.068 1.03.292 1.184.842-12.82.238-25.636.232-38.453.206-.285 0-.57-.238-.855-.365.131-.206.263-.412.75-.663z" fill="#0B6E90"/>
        <path d="M353.11 239.347c-.729-.72-2.014-1.857-2.095-3.075-.252-3.78-.047-7.59-.073-11.857.01-1.198.073-1.928.072-3.018.616.798 1.82 1.93 1.886 3.123.26 4.78.167 9.58.21 14.827z" fill="#52A2BD"/>
        <path d="M491.56 19.056c-2.214 3.466-5.3 2.356-8.521.507 2.624-.44 5.348-.5 8.522-.507z" fill="#3598BA"/>
        <path d="M423.55 23.202c-.034 1.797-.417 3.704-1.134 5.769.04-1.782.412-3.72 1.134-5.77z" fill="#8EDCF6"/>
        <path d="M157.067 266.273c.538-.708 1.124-1.085 1.71-1.462.284 1.03.567 2.062.557 3.134-.935-.42-1.577-.88-2.267-1.672z" fill="#3A95B4"/>
        <path d="M123.068 161.308c.427-.867.905-1.372 1.382-1.876.488 1.11.975 2.22 1.423 3.727-.946-.231-1.85-.86-2.805-1.85z" fill="#3A95B4"/>
        <path d="M184.074 349.271c1.013-.231 2.071-.132 3.13-.033-.186.555-.373 1.111-.857 1.706-.941-.42-1.584-.881-2.273-1.673z" fill="#3A95B4"/>
        <path d="M511.641 23.102c-.408-1.033-.5-2.1-.564-3.57.975.665 1.92 1.734 2.821 3.137-.675.356-1.309.377-2.257.433z" fill="#3194B6"/>
        <path d="M195.007 357.022c-.947-.487-1.894-.973-2.933-1.731-.093-.272-.022-.337.37-.332l2.555.041.002.337.006 1.685z" fill="#3B95B4"/>
        <path d="M152.66 233.154c.778.242 1.33.67 1.882 1.1-.557.252-1.114.504-1.993.782-.253-.547-.183-1.12.112-1.882z" fill="#3A95B4"/>
        <path d="M230.344 343.71c-.793-.094-1.372-.496-1.95-.898a16.637 16.637 0 0 1 1.933-.867c.274.463.253.96.017 1.765z" fill="#3A95B4"/>
        <path d="M226.3 348.912c-.034-.794.247-1.63.527-2.465.342.243.684.486 1.071 1.022-.398.663-.841 1.032-1.599 1.443z" fill="#3A95B4"/>
        <path d="M213.342 357.446c-.083-.748.192-1.416.467-2.084.383.378.766.757 1.18 1.392-.41.43-.85.601-1.647.692z" fill="#3A95B4"/>
        <path d="M271.057 108.334c.55-.02 1.045.291 1.54.603-.292.324-.584.648-1.159 1.016-.334-.4-.385-.843-.38-1.619z" fill="#3A95B4"/>
        <path d="M271.107 282.33c.551 0 1.024.326 1.497.653-.304.311-.609.622-1.195.974-.315-.406-.347-.852-.302-1.626z" fill="#3A95B4"/>
        <path d="M271.075 291.335c.544-.024 1.035.285 1.526.595-.285.325-.57.65-1.134 1.02-.334-.396-.389-.84-.392-1.615z" fill="#3A95B4"/>
        <path d="M611.858 298.721c-.678-.103-1.329-.548-1.96-1.33.675.106 1.331.548 1.96 1.33z" fill="#8EDCF6"/>
        <path d="M198.436 266.075c-.447-.445-.684-.933-.92-1.421.459.19.919.38 1.427.847.049.277-.296.531-.507.574z" fill="#3A95B4"/>
        <path d="M271.323 334.993c-.322-.533-.322-.95-.323-1.68.64.141 1.278.595 1.959 1.37-.41.356-.863.391-1.636.31z" fill="#3A95B4"/>
        <path d="M152.5 259.479c.657-.055 1.328.215 2 .484-.303.316-.606.632-1.23.993-.467-.353-.611-.753-.77-1.477z" fill="#3A95B4"/>
        <path d="M195.3 357.171c-.295-.598-.297-1.048-.299-1.834.631.197 1.263.73 1.895 1.614-.434.356-.87.362-1.597.22z" fill="#3A95B4"/>
        <path d="M386.569 125.92c.188.676.134 1.615-.16 2.819-.188-.675-.135-1.614.16-2.818z" fill="#2689AA"/>
        <path d="M790.776 477.845c-6.19 1.763-10.593-.695-10.393-6.23.097-2.688 1.907-6.182 4.069-7.64 1.611-1.087 6.264-.39 7.36 1.117 1.674 2.3 1.735 5.97 1.873 9.086.05 1.116-1.663 2.31-2.909 3.667z" fill="#F6F7F5"/>
        <path d="M460.136 101.476c.642-1.76 1.306-3.205 2.042-5.034.89-5.732 2.223-10.877 6.218-15.192 2.99 9.407 5.56 18.942 8.375 28.404 1.633 5.488 3.73 10.835 5.497 16.286 2.63 8.117 5.218 16.25 7.707 24.412 5.045 16.543 9.93 33.136 15.04 49.66 2.966 9.593 3.104 9.55-7.1 9.55-22.137 0-44.274.01-66.41-.007-4.364-.003-5.567-1.478-4.425-5.241 2.716-8.95 5.223-17.971 8.205-26.833 2.636-7.834 6.035-15.412 8.668-23.248 3.17-9.434 5.877-19.023 8.806-28.539 1.707-5.547 3.429-11.09 5.202-16.616.578-1.8 1.34-3.54 1.973-5.695.045-.789.134-1.191.202-1.907z" fill="#F9FCFC"/>
        <path d="M279.02 192.944c.016-.683.032-1.367.513-2.464 21.219-.424 41.973-.394 62.727-.525 1.643-.01 3.28-1.132 4.92-1.737 0 0-.086-.199.33-.084 1.392-.665 2.369-1.445 3.346-2.225 0 0 .065.022.397-.003.873-.593 1.416-1.16 1.958-1.728 4.174-.93 6.679 2.012 8.138 4.788.874 1.662-.392 4.809-1.362 6.993-1.267 2.851-4.025 4.01-6.938 2.931-1.983-.733-3.598-2.46-5.815-4.204-2.106-.814-3.774-1.463-5.445-1.474-20.923-.143-41.846-.193-62.77-.268z" fill="#9BE3FC"/>
        <path d="M279.182 208.016c-.038-.412-.077-.823.34-1.624 14.561-.401 28.666-.377 42.77-.467 1.893-.013 3.782-.608 5.932-.723.873 1.127 1.487 2.044 2.1 2.96l1.426-1.37c-1.26-.918-2.52-1.836-4.027-2.772a21.186 21.186 0 0 0-.736-.033c4.444-3.58 11.864-3.552 13.524.448.81 1.954.712 5.719-.554 6.778-2.093 1.753-5.42 2.255-8.317 2.719-1.21.193-2.651-1.06-4.365-2.064-.375-.8-.372-1.194-.4-2.012-1.636-.903-3.237-1.786-4.845-1.797-14.282-.102-28.565-.05-42.848-.043z" fill="#9FE4FC"/>
        <path d="M279.168 176.979c-.024-.438-.049-.875.468-1.635 14.424-.325 28.308-.294 42.19-.37 1.73-.008 3.455-.574 5.182-.882 0 0 .014-.074.355-.104.795-.627 1.249-1.225 1.703-1.823 0 0-.007-.11.443-.114 2.134-.662 3.82-1.32 5.505-1.979.964.377 1.928.754 2.982 1.807.727 1.156 1.363 1.637 1.999 2.118 0 0 .006.002.002.406-.975 3.174-1.946 5.944-2.917 8.715 0 0-.085-.04-.42-.07-1.757.212-3.18.454-4.603.696-.17.059-.342.118-.787-.24-1.631-1.761-2.988-3.107-4.313-4.478.032-.026-.005.048-.077-.356-1.713-.824-3.352-1.597-4.996-1.609-14.238-.105-28.477-.073-42.716-.082m52.338-.639c.65 1.488 1.3 2.977 2.39 5.478l2.586-8.373c-1.93.847-3.52 1.546-4.976 2.895z" fill="#9FE4FC"/>
        <path d="M346.7 188.152c-1.16.671-2.797 1.793-4.44 1.803-20.754.131-41.508.101-62.72.183-.484-.405-.51-.88-.547-1.713 22.402-.35 44.815-.345 67.707-.273z" fill="#3A95B4"/>
        <path d="M279.014 193.29c20.929-.271 41.852-.221 62.775-.078 1.671.011 3.339.66 5.09 1.409-.644.428-1.37.46-2.93.477-22.204-.04-43.573-.063-64.942-.086 0-.46 0-.919.007-1.723z" fill="#3A95B4"/>
        <path d="M278.992 195.34c21.384-.305 42.753-.281 64.594-.212-1.202.65-2.874 1.771-4.552 1.781-19.707.123-39.416.078-59.597.074-.468-.441-.464-.878-.445-1.643z" fill="#187C9E"/>
        <path d="M327.965 204.991c-1.89.326-3.78.921-5.672.934-14.105.09-28.21.066-42.773.157-.476-.4-.495-.88-.516-1.719 15.68-.37 31.364-.379 47.515-.382.468.006.96.02 1.183.277.224.256.263.733.263.733z" fill="#3A95B4"/>
        <path d="M279.45 180.943c-.452-.49-.434-.957.065-1.704 16.133-.241 31.785-.203 47.437-.165 0 0 .037-.074.045.283-.024.8-.055 1.242-.087 1.685-15.663-.025-31.327-.05-47.46-.099z" fill="#3A95B4"/>
        <path d="M326.906 210.28c-.003.394-.006.787-.002 1.475-15.649.295-31.304.295-47.426.282-.464-.49-.46-.967.015-1.718 16.12-.195 31.766-.117 47.413-.038z" fill="#3A95B4"/>
        <path d="M631.41 357.98c-.202.674-.86 1.97-1.526 1.975-12.08.076-24.16.01-36.24-.093-.503-.004-1-.674-1.588-1.436 12.907-.41 25.901-.417 39.354-.446z" fill="#2F8EAF"/>
        <path d="M377.611 197.057c1.37 1.638 2.214 3.466 3.408 5.026 2.426 3.171-.628 4.128-2.447 5.8-4.303-2.61-4.637-6.207-.961-10.826z" fill="#8EDCF6"/>
        <path d="M326.54 174.11c-1.259.29-2.985.856-4.714.865-13.882.075-27.766.044-42.094.053-.445.007-.533-.348-.59-.52 15.605-.242 31.267-.311 47.398-.398z" fill="#92DFF8"/>
        <path d="M614.26 350.865c4.07-3.472 8.9-1.899 13.843-.486-4.359.435-8.86.49-13.842.486z" fill="#3598BA"/>
        <path d="M337.442 183.066c.609-2.719 1.58-5.49 2.556-8.66 3.34 2.604 2.71 5.19-2.556 8.66z" fill="#92DFF8"/>
        <path d="M503.21 106.122c2.62-.292 5.256-.177 8.337-.097-2.259 3.69-5.26 2.55-8.336.097z" fill="#2F8EAF"/>
        <path d="M353.454 250.1c-.412-3.034-.434-6.104-.457-9.631 3.488 2.624 1.798 6.14.457 9.63z" fill="#ACE8FD"/>
        <path d="M389.369 205.926c-.32-1.326-.26-2.716-.279-4.846-.087-1.183-.096-1.625-.044-2.122.06-.056.185-.164.185-.164 2.957 2.153 2.352 4.566.138 7.132z" fill="#2689AA"/>
        <path d="M327.081 181.323c-.14-.724-.108-1.167-.117-1.94 1.318 1.014 2.675 2.36 4.044 4.053-1.244-.379-2.5-1.105-3.927-2.113z" fill="#92DFF8"/>
        <path d="M334.618 169.974c-1.29.757-2.975 1.415-5.055 2.086 1.29-.72 2.975-1.451 5.055-2.086z" fill="#92DFF8"/>
        <path d="M516.273 102.865c-.412-1.593-.446-3.23-.508-5.275 3.41.964 2.873 2.98.508 5.275z" fill="#2F8EAF"/>
        <path d="M350.485 185.896c-.606.793-1.583 1.573-2.917 2.33.61-.797 1.578-1.57 2.917-2.33z" fill="#3A95B4"/>
        <path d="M537.897 199.342c.563-.965 1.144-1.569 2.074-2.149-.167 1.27-.682 2.517-1.54 3.858-.4-.386-.458-.866-.534-1.709z" fill="#3194B6"/>
        <path d="M346.863 357.566c-1.845.373-3.923.425-6.447.457 1.775-.272 3.994-.525 6.447-.457z" fill="#8EDCF6"/>
        <path d="M332.434 183.784c1.046-.282 2.469-.524 4.273-.735-1.044.278-2.47.527-4.273.735z" fill="#92DFF8"/>
        <path d="M387.124 198.655c.023-.387.047-.773.071-1.45.618.14 1.234.573 1.944 1.297.092.292-.032.4-.402.389-.785-.086-1.199-.161-1.613-.236z" fill="#2689AA"/>
        <path d="M514.358 104.977c.076-.64.485-1.312 1.219-2.031-.079.636-.482 1.317-1.219 2.031z" fill="#2F8EAF"/>
        <path d="M352.871 184.135c-.202.61-.745 1.178-1.618 1.736.205-.599.741-1.19 1.618-1.736z" fill="#3A95B4"/>
        <path d="M339.983 173.657c-.624-.141-1.26-.622-1.918-1.436.62.144 1.263.62 1.918 1.436z" fill="#92DFF8"/>
        <path d="M328.756 172.208c-.144.555-.598 1.153-1.357 1.79.146-.555.597-1.15 1.357-1.79z" fill="#92DFF8"/>
        <path d="M387.311 207.965c.122-.614.574-1.252 1.352-1.933-.123.608-.572 1.258-1.352 1.933z" fill="#2689AA"/>
        <path d="M124.024 147.988c-.032-.758-.063-1.516-.151-3.053-.12-2.499-.183-4.219-.247-5.94 1.505-3.374 3.01-6.749 4.45-10.551-.063-.428.035-.301.035-.301 1.208-.75 2.417-1.498 4.149-2.524.927-.419 1.332-.561 1.736-.704 5.602-.57 11.204-1.141 17.337-1.401 1.532.84 2.532 1.368 3.532 1.896 1.851 2.087 3.702 4.174 5.843 6.408.29.148.374.146.374.146 3.07 6.425 2.917 12.836-.08 19.637-.004.401.01.423.01.423-3.6 2.773-7.199 5.546-10.908 8.65-.11.33-.118.3-.118.3-4.017-.026-8.033-.052-12.608-.36a1174.98 1174.98 0 0 0-3.315-1.647c-2.454-2.28-4.908-4.56-7.691-7.286a165.012 165.012 0 0 1-2.348-3.693z" fill="#F6FAFB"/>
        <path d="M117.847 28.741c17.161 1.223 20.47 16.197 15.867 28.12-4.817 12.477-22.692 13.908-31.16 3.266-9.32-11.715-6.99-24.858 5.617-30.146 2.76-1.158 6.128-.87 9.676-1.24z" fill="#F6FAFB"/>
        <path d="M194.967 312.924c5.662-.562 11.324-1.125 17.468-1.355a42.412 42.412 0 0 0 2.665 1.4c5 3.495 8.179 8.26 9.004 14.269 1.287 9.368-2.949 16.104-11.315 21.15-.97.362-1.38.474-1.79.586-3.692-.026-7.384-.052-11.845-.206-1.89-.364-3.01-.599-4.131-.834a1295.6 1295.6 0 0 0-6.709-8.23 215.998 215.998 0 0 1-2.29-2.712c.009-4.023.017-8.046.115-12.792.067-1.105.045-1.488.024-1.87 1.326-1.5 2.653-3 3.914-4.907-.065-.407.033-.281.033-.281 1.519-1.19 3.038-2.38 4.707-3.854.15-.282.15-.364.15-.364z" fill="#F6FAFB"/>
        <path d="M183.985 265.974c-3.684-.01-7.368-.022-11.618-.356a71.046 71.046 0 0 0-4.297-1.655 538.385 538.385 0 0 1-6.7-7.285 170.176 170.176 0 0 1-2.342-3.687c-.009-3.694-.017-7.387-.024-11.54 0-.46-.02-.485-.02-.485a338.98 338.98 0 0 1 3.414-6.622 42.206 42.206 0 0 1 1.81-2.264c.432-.32.864-.642 1.837-1.083a9.626 9.626 0 0 0 1.952-1.166c2.285-.672 4.605-1.993 6.85-1.875 4.15.218 8.257 1.278 12.779 2.02.397.032.454-.015.454-.015 2.107 2.233 4.213 4.465 6.62 6.85.3.153.385.154.385.154.709 2.462 2.083 4.954 1.975 7.38-.178 3.974-1.32 7.906-2.058 12.257-.004.4.01.422.01.422-3.596 2.771-7.193 5.542-10.904 8.647-.114.333-.123.303-.123.303z" fill="#F6FAFB"/>
        <path d="M248 141h-28.3v-1.31h50.577l.065 1.31H248z" fill="#3A95B4"/>
        <path d="M326.875 209.856c-15.616.346-31.263.268-47.369.106-.452-.5-.446-.916-.382-1.64 14.341-.313 28.624-.365 42.906-.263 1.608.011 3.21.894 4.845 1.797z" fill="#ACE8FD"/>
        <path d="M326.88 178.67c-15.58.366-31.232.328-47.342.219-.455-.48-.452-.89-.41-1.605 14.28-.296 28.518-.328 42.756-.223 1.644.012 3.283.785 4.996 1.609z" fill="#92DFF8"/>
        <path d="M232.998 332.998c.957-.664 1.906-1.894 2.87-1.906 10.982-.131 21.966-.098 32.949-.021.67.004 1.334.74 2.092 1.532-12.263.397-24.616.397-37.44.397-.469 0-.47-.002-.47-.002z" fill="#3A95B4"/>
        <path d="M158.682 253.053c1.018 1.019 1.69 2.1 2.35 3.54-.735.643-1.455.927-2.176 1.21-.173-1.562-.346-3.125-.174-4.75z" fill="#3A95B4"/>
        <path d="M123.26 139.018c.43 1.698.493 3.418.473 5.562-3.547-1.232-3.729-2.664-.474-5.562z" fill="#3A95B4"/>
        <path d="M167.81 264.166c1.503.24 2.747.684 4.097 1.46-.8.962-1.706 1.59-2.613 2.219-.581-1.159-1.162-2.317-1.484-3.679z" fill="#3A95B4"/>
        <path d="M123.753 148.213c.944.857 1.617 1.94 2.278 3.38-.678.671-1.344.984-2.01 1.297-.18-1.484-.36-2.968-.268-4.677z" fill="#3A95B4"/>
        <path d="M185.704 337.037c.959.72 1.597 1.486 2.276 2.58-.534.759-1.108 1.19-1.682 1.62-.305-1.386-.61-2.77-.594-4.2z" fill="#3A95B4"/>
        <path d="M133.806 159.166c1.176.256 2.094.71 3.11 1.48-.481.936-1.06 1.557-1.638 2.177-.576-1.153-1.153-2.306-1.472-3.657z" fill="#3A95B4"/>
        <path d="M155.976 249.403c-.499-1.587-.637-3.168-.775-4.749l1.614.013c-.159 1.58-.318 3.161-.839 4.736z" fill="#3A95B4"/>
        <path d="M195.025 348.314c1.118-.145 2.24.09 3.669.484-.4.812-1.11 1.464-1.818 2.116-.616-.74-1.233-1.48-1.851-2.6z" fill="#3A95B4"/>
        <path d="M183.964 330.85c-.384.765-.755 1.173-1.126 1.58l-.87-3.644 1.058-.342c.318.683.635 1.367.938 2.407z" fill="#3A95B4"/>
        <path d="M215.398 312.928c-1.026-.315-1.753-.671-2.504-1.363 1.05-.365 2.126-.395 3.2-.425-.132.582-.265 1.165-.696 1.788z" fill="#3A95B4"/>
        <path d="M183.98 265.993c1.156.157 2.328.326 3.5.495l-.298 1.35c-1.023-.39-2.047-.782-3.133-1.519-.064-.345-.055-.315-.07-.326z" fill="#3A95B4"/>
        <path d="M186.089 321.996c.095.716.117 1.099.012 1.742-.654-.781-1.18-1.824-1.708-2.867.541.264 1.082.528 1.696 1.125z" fill="#3A95B4"/>
        <path d="M158.99 240.99c-.717-.96-1.42-1.919-2.125-2.877l1.42-.669c.235.933.47 1.866.702 3.16-.004.362.018.388.004.386z" fill="#3A95B4"/>
        <path d="M149.98 160.993c.85.151 1.713.313 2.576.476l-.382 1.092c-.694-.306-1.388-.612-2.135-1.252-.053-.334-.045-.305-.059-.316z" fill="#3A95B4"/>
        <path d="M154.862 125.011c-.997-.13-1.997-.658-3.082-1.546.97.143 2.024.645 3.082 1.546z" fill="#3A95B4"/>
        <path d="M194.952 354.67c-.674.318-1.395.306-2.473.256a5.067 5.067 0 0 1 2.473-.256z" fill="#3A95B4"/>
        <path d="M163.856 232.061c-.146.607-.643 1.194-1.405 1.902-.49-.352-.717-.824-.943-1.297.666-.208 1.331-.416 2.348-.605z" fill="#3A95B4"/>
        <path d="M167.997 229.526c-.47.654-.94 1.002-1.704 1.357.15-.924.59-1.854 1.37-2.834.336.358.336.765.334 1.477z" fill="#3A95B4"/>
        <path d="m128.078 128.063-1.613-1.182c.103-.113.287-.332.298-.323.418.317.82.654 1.286 1.287.062.298-.036.17.029.218z" fill="#3A95B4"/>
        <path d="M168.535 272.39c.116-.45.399-.725.7-.979.008-.006.213.22.326.339-.286.272-.571.544-1.026.64z" fill="#3A95B4"/>
        <path d="M168.284 227.965c.018-.475.32-.986.623-1.496l.63.545c-.323.305-.646.61-1.253.95z" fill="#3A95B4"/>
        <path d="M161.023 131.932c.324-.517.623-1 .923-1.482l.607.55c-.306.303-.612.604-1.194.935-.277.03-.361.03-.336-.003z" fill="#3A95B4"/>
        <path d="M119.535 129.391c.116-.45.402-.722.687-.995l.339.355c-.286.272-.571.545-1.026.64z" fill="#3A95B4"/>
        <path d="M196.964 236.706c-.39.29-.815.285-1.56.27-.32-.011-.404-.012-.38-.047l.986-1.504c.306.33.612.658.954 1.281z" fill="#3A95B4"/>
        <path d="M133.945 124.609c-.353.449-.758.591-1.489.754-.053-.619.22-1.257.495-1.895.314.278.629.556.994 1.14z" fill="#3A95B4"/>
        <path d="M188.026 229.971c.301-.53.599-1.023.896-1.516l.627.533c-.305.306-.61.611-1.192.945-.277.028-.334.075-.33.038z" fill="#3A95B4"/>
        <path d="M211.044 349.289c.365-.427.775-.539 1.508-.66.029.625-.265 1.26-.558 1.893-.302-.306-.604-.612-.95-1.233z" fill="#3A95B4"/>
        <path d="M186.534 272.39c.116-.45.399-.725.7-.979.008-.006.213.22.326.339-.286.272-.571.544-1.026.64z" fill="#3A95B4"/>
        <path d="M195.394 304.955c.397-.242.791-.24 1.184-.21.01.001-.002.307-.004.47-.394-.004-.788-.008-1.18-.26z" fill="#3A95B4"/>
        <path d="M214.465 304.61c-.116.449-.399.724-.7.979-.008.006-.213-.22-.326-.339.286-.272.571-.545 1.026-.64z" fill="#3A95B4"/>
        <path d="M194.935 312.98c-.516-.325-1-.625-1.483-.924l.55-.607c.302.307.604.614.935 1.198.03.277.03.359-.002.333z" fill="#3A95B4"/>
        <path d="m190.077 317.063-1.612-1.183c.103-.112.287-.331.298-.323.418.317.82.655 1.286 1.287.06.298-.037.172.028.219z" fill="#3A95B4"/>
        <path d="M224.394 320.954c.397-.242.791-.24 1.184-.21.01.001-.002.307-.003.47-.395-.004-.789-.008-1.18-.26z" fill="#3A95B4"/>
        <path d="M271.61 326.535c.449.116.724.399.979.7.006.008-.22.213-.34.326-.272-.286-.544-.571-.64-1.026z" fill="#3A95B4"/>
        <path d="M233 333c-.301.511-.605 1.021-.908 1.53l-.629-.545c.322-.305.645-.61 1.251-.951a3.09 3.09 0 0 1 .287-.033z" fill="#3A95B4"/>
        <path d="M197.035 237.284c.475.018.986.32 1.496.623l-.545.63c-.305-.323-.61-.646-.95-1.253z" fill="#3A95B4"/>
        <path d="M195.009 257.006c.516.304 1.02.605 1.526.906l-.542.628c-.305-.317-.61-.635-.948-1.234-.033-.282-.047-.304-.036-.3z" fill="#3A95B4"/>
        <path d="M219.03 355.011c-.497-.221-1.026-.44-1.513-.731-.051-.031.153-.488.238-.748.396.311.793.623 1.23 1.222.04.288.026.24.046.257z" fill="#3A95B4"/>
        <path d="M202.608 253.534c.45.116.726.4.98.7.007.008-.22.213-.339.327-.272-.286-.545-.572-.64-1.027z" fill="#3A95B4"/>
        <path d="M207.466 248.608c-.116.45-.4.726-.7.98-.009.007-.214-.22-.327-.339.286-.272.572-.545 1.027-.64z" fill="#3A95B4"/>
        <path d="M272.046 242.394c.242.397.24.791.21 1.183 0 .011-.307-.001-.47-.003.004-.394.008-.788.26-1.18z" fill="#3A95B4"/>
        <path d="M205.465 242.609c-.116.45-.399.725-.7.98-.008.006-.213-.22-.326-.34.286-.272.571-.544 1.026-.64z" fill="#3A95B4"/>
        <path d="M129.992 166.01c.3-.504.605-1.02.91-1.536l.63.549c-.329.305-.657.61-1.272.953-.287.04-.263.022-.268.034z" fill="#3A95B4"/>
        <path d="M161.009 152.006c.515.304 1.02.605 1.526.906l-.542.628c-.305-.317-.61-.635-.948-1.234-.033-.282-.047-.304-.036-.3z" fill="#3A95B4"/>
        <path d="M400.646 190.247c1.626.764 2.878 1.485 4.13 2.206l-1.174 2.3-5.305-.592c.658-1.32 1.316-2.638 2.349-3.914z" fill="#52A2BD"/>
        <path d="M229.825 478.919h-4.55v-8.585c7.937-1.357 11.494-.321 11.732 3.512.305 4.905-3.303 4.951-7.182 5.073z" fill="#FBFDFD"/>
        <path d="M226.177 455.939c2.438-.048 4.618-.505 6.342.182 1.49.592 3.398 2.48 3.403 3.802.005 1.366-1.826 3.466-3.278 3.937-2.087.678-4.559.173-7.713.173.27-2.741.53-5.374 1.246-8.094z" fill="#FBFDFD"/>
        <path d="M608.301 477.947c-8.217-3.492-7.947-15.227-3.222-19.26 3.666-3.128 7.745-3.765 12.024-1.465 4.55 2.446 6.534 7.93 5.074 13.4-1.259 4.714-5.017 7.945-9.587 8.048-1.303.03-2.616-.395-4.289-.723z" fill="#FAFBFA"/>
        <path d="M542.507 474.167c-4.245-8.743-.8-17.178 7.036-18.136 5.076-.62 9.681 2.234 11.259 6.98 1.745 5.253-.195 11.356-4.483 14.093-4.558 2.91-9.147 2.024-13.812-2.937z" fill="#FAFBFA"/>
        <path d="M86.029 478.21c-5.097 1.1-9.038-.22-11.556-4.374-2.603-4.295-2.551-8.85.027-13.206 2.186-3.694 5.687-5.067 9.776-4.566 4.772.585 7.835 3.369 8.81 8.15 1.334 6.546-.659 10.597-7.057 13.997z" fill="#FBFDFD"/>
        <path d="M914.017 471.735c.66-6.437 3.535-9.348 8.14-8.686 4.046.58 7.092 4.774 5.637 9.362-.794 2.503-3.52 5.548-5.918 6.136-4.38 1.074-6.902-2.16-7.859-6.812z" fill="#F6F7F5"/>
        <path d="M506.65 101.516c-.864-.494-1.47-.74-2.078-.984l-.327-1.093 6.048-1.831.526 3.805c-1.305.118-2.61.235-4.17.103z" fill="#3598BA"/>
        <path d="M25.68 472.307c-2.377.01-4.317.01-6.979.01l4.709-14.053c1.674 4.626 3.061 8.196 4.182 11.847.162.528-.952 1.448-1.912 2.196z" fill="#F6FAFB"/>
        <path d="M306.894 461.385c1.182 3.612 2.277 6.86 3.537 10.594h-9.42l4.422-13.085c.667 1.033 1.02 1.58 1.461 2.491z" fill="#F6F7F5"/>
        <path d="M199.802 472.233c-2.553.056-4.645.056-7.533.056l4.303-12.659 1.646-.09c.682 4.213 1.363 8.425 1.584 12.693z" fill="#F6FAFB"/>
        <path d="M385.796 200.202c-.364.602-.79.905-1.217 1.208l-.345-1.343c.5-.055 1-.11 1.562.135z" fill="#8EDCF6"/>
        <path d="M384.493 203.665c.544.345.87.905 1.197 1.466l-.838.382c-.192-.544-.385-1.088-.36-1.848z" fill="#8EDCF6"/>
        <path d="M387.116 199.01c.422-.28.836-.205 1.56-.063.318.508.327.95.33 1.722-.637-.213-1.268-.758-1.89-1.659z" fill="#8EDCF6"/>
        <path d="M328.224 205.202c-.259-.21-.298-.688-.277-.926 1.282.68 2.543 1.598 3.803 2.516l-1.426 1.37c-.613-.916-1.227-1.833-2.1-2.96z" fill="#ACE8FD"/>
        <path d="M331.439 176.015c1.523-1.024 3.113-1.723 5.043-2.57l-2.585 8.373c-1.092-2.501-1.741-3.99-2.458-5.803z" fill="#92DFF8"/>
    </g>
</svg>